<svg xmlns="http://www.w3.org/2000/svg" viewBox="0 0 346.4 167.4"><defs><style>.a{fill:#6d6e71;}.b,.c{fill:#2c81c4;}.b,.e{fill-rule:evenodd;}.d{fill:#808285;}.e{fill:#fff;}</style></defs><title>LOgo JDR</title><path class="a" d="M55.67,157.5l0.27-5.67,0.46-16.57L56.45,132c0-1,0-1.81,0-2.39l1.68,0,1.54,0,1.46,3.59L70,153.58l0.56-23.94,1.2,0,1.18,0-0.29,7.14-0.36,12.59-0.17,8.12c-0.53,0-1,0-1.56,0s-1,0-1.62,0l-1.23-3-9.11-20.71c0,0.76-.07,2-0.11,3.59l-0.38,14.43-0.08,5.7-1.17,0Z"/><path class="a" d="M82.95,136.36a6.17,6.17,0,0,1,2.69.61,5.74,5.74,0,0,1,2.21,1.94,9.67,9.67,0,0,1,1.42,3.35,18.22,18.22,0,0,1,.48,4.27,20.33,20.33,0,0,1-.52,4.65,12.92,12.92,0,0,1-1.45,3.77,6,6,0,0,1-2.28,2.28,6.08,6.08,0,0,1-2.9.72,5.86,5.86,0,0,1-2.72-.65,5.94,5.94,0,0,1-2.21-2,10.26,10.26,0,0,1-1.42-3.4,17.69,17.69,0,0,1-.49-4.21,18.83,18.83,0,0,1,.89-6,8,8,0,0,1,2.61-4A5.94,5.94,0,0,1,82.95,136.36Zm-0.06,2.59a3.68,3.68,0,0,0-2.51,1,6.3,6.3,0,0,0-1.7,3.14,17.84,17.84,0,0,0-.55,4.56,15.45,15.45,0,0,0,.45,3.89,6.14,6.14,0,0,0,1.5,2.79,3.42,3.42,0,0,0,2.52,1.06,3.73,3.73,0,0,0,1.91-.52,4.41,4.41,0,0,0,1.57-1.73,9.7,9.7,0,0,0,1-2.95,19.84,19.84,0,0,0,.32-3.67,16.48,16.48,0,0,0-.32-3.36,6.69,6.69,0,0,0-1-2.52,3.86,3.86,0,0,0-1.5-1.34A4.07,4.07,0,0,0,82.88,138.95Z"/><path class="a" d="M104.66,157.5c0.11-2.12.21-4.53,0.28-7.23l0.24-9.12q0.15-5.12.19-8.06c-0.47.44-.84,0.79-1.08,1l-0.91.94c0.07-1.28.11-2.4,0.11-3.35a28.31,28.31,0,0,0,2.19-2.08c0.3,0,.67,0,1.13,0s0.89,0,1.22,0l-0.33,8.71-0.34,12.08-0.05,3c0,0.78,0,1.56,0,2.35l0,1.68c-0.45,0-.87,0-1.25,0S105.15,157.47,104.66,157.5Z"/><path class="a" d="M128.75,154.8q-0.15,1-.32,2.66a8.65,8.65,0,0,1-1.45.41l-1,.08a3.65,3.65,0,0,1-1.93-.46A2.91,2.91,0,0,1,122.9,156a8,8,0,0,1-.39-2.75v-0.8c0-.38.05-1.71,0.14-4l0.33-9.15h-1.8c0-.57.07-1.39,0.1-2.45h1.83q0.06-1.14.14-3.9c0.84-.25,1.55-0.48,2.13-0.7q-0.09,3-.11,4.59H129q-0.07,1.28-.09,2.45h-3.72l-0.36,11.48v0.88a8.25,8.25,0,0,0,.22,2.24,2,2,0,0,0,.66,1.07l0.92,0.33,0.73-.08A9.53,9.53,0,0,0,128.75,154.8Z"/><path class="a" d="M137.51,136.36a6.18,6.18,0,0,1,2.69.61,5.77,5.77,0,0,1,2.21,1.94,9.61,9.61,0,0,1,1.41,3.35,18,18,0,0,1,.49,4.27,20.33,20.33,0,0,1-.52,4.65,12.9,12.9,0,0,1-1.45,3.77,6,6,0,0,1-2.28,2.28,6.09,6.09,0,0,1-2.9.72,5.85,5.85,0,0,1-2.72-.65,5.92,5.92,0,0,1-2.21-2,10.25,10.25,0,0,1-1.42-3.4,17.87,17.87,0,0,1-.48-4.21,18.9,18.9,0,0,1,.89-6,8,8,0,0,1,2.61-4A5.94,5.94,0,0,1,137.51,136.36Zm-0.06,2.59a3.67,3.67,0,0,0-2.51,1,6.27,6.27,0,0,0-1.7,3.14,17.79,17.79,0,0,0-.55,4.56,15.38,15.38,0,0,0,.45,3.89,6.08,6.08,0,0,0,1.5,2.79,3.41,3.41,0,0,0,2.53,1.06,3.73,3.73,0,0,0,1.9-.52,4.36,4.36,0,0,0,1.57-1.73,9.66,9.66,0,0,0,1-2.95,20.06,20.06,0,0,0,.32-3.67,16.66,16.66,0,0,0-.32-3.36,6.69,6.69,0,0,0-1-2.52,3.89,3.89,0,0,0-1.5-1.34A4.05,4.05,0,0,0,137.45,138.95Z"/><path class="a" d="M159.73,157.5l-1.13,0-1.12,0,0.07-3.94A15,15,0,0,1,157,155l-0.59,1-0.72.81-0.87.58-1.16.43a5.65,5.65,0,0,1-1.42.17,5,5,0,0,1-2.8-.75,4.71,4.71,0,0,1-1.76-2.14,9.76,9.76,0,0,1-.6-3.8c0-.24,0-0.66,0-1.24s0-1.35.08-2.28l0.23-6.8,0-2.18c0-.51,0-1.14,0-1.92l1.24,0,1.16,0q-0.19,3.57-.36,7.81t-0.17,5.42a8.66,8.66,0,0,0,.39,2.87,3.19,3.19,0,0,0,1.28,1.65,3.6,3.6,0,0,0,2,.58,3.72,3.72,0,0,0,1.91-.53,4.17,4.17,0,0,0,1.32-1.26,8.1,8.1,0,0,0,1-2.26,15.13,15.13,0,0,0,.43-2.63q0.1-1.16.19-4.18,0.11-3.68.15-7.47l1.25,0,1.13,0q-0.19,3.66-.45,11.16Q159.77,152.12,159.73,157.5Z"/><path class="a" d="M163.31,157.5q0.48-11.78.49-18.8l0-1.87,1.13,0,1.15,0-0.11,3.39a13.17,13.17,0,0,1,.88-1.91,4.15,4.15,0,0,1,.87-1.06l1.09-.65,1.27-.24,1.12,0.2c0,0.89,0,1.9.09,3a3.93,3.93,0,0,0-1.49-.35,2.65,2.65,0,0,0-1.43.39,3.72,3.72,0,0,0-1.14,1.2,8,8,0,0,0-.83,1.93,12.71,12.71,0,0,0-.41,2.32q-0.14,1.44-.22,5.21c0,1.83-.06,3.78-0.06,5.83v1.37c-0.48,0-.87,0-1.17,0S163.86,157.47,163.31,157.5Z"/><path class="a" d="M186.81,157.5l0.23-5.14,0.26-8.78,0.11-6.75,1.24,0,1.21,0q-0.15,3.18-.27,6.66t-0.2,7.6c0,2.75-.08,4.88-0.08,6.41l-1.21,0Zm0.62-25.12c0-1.28,0-2.24,0-2.9,0.49,0,.93,0,1.31,0s0.9,0,1.29,0c0,0.42,0,1.39-.08,2.9l-1.25,0Z"/><path class="a" d="M192.86,157.5q0.65-12.8.67-20.67l1.21,0,1.17,0-0.18,4.08c0.22-.57.4-1,0.54-1.31l0.54-1,0.79-1,1.07-.73,1.26-.44,1.28-.14a6,6,0,0,1,2.23.43,3.94,3.94,0,0,1,1.77,1.39,5.44,5.44,0,0,1,.93,2.18,13.17,13.17,0,0,1,.24,2.58c0,0.18,0,.52,0,1s0,1.17-.05,2L206,154.5q0,1.22,0,3l-1.15,0-1.24,0q0.14-2.47.2-4.76L204,148c0.06-1.63.08-2.86,0.08-3.69a8.41,8.41,0,0,0-.4-2.87,3.3,3.3,0,0,0-1.29-1.65,3.55,3.55,0,0,0-2-.58,3.65,3.65,0,0,0-2.68,1.12,6.94,6.94,0,0,0-1.59,3,20.25,20.25,0,0,0-.55,4q-0.21,3.2-.29,10.18-0.75,0-1.16,0C193.84,157.46,193.42,157.47,192.86,157.5Z"/><path class="a" d="M230.95,153.93c-0.13,1-.24,2.06-0.34,3.2a16.63,16.63,0,0,1-4.85.82A8.43,8.43,0,0,1,222,157a8.56,8.56,0,0,1-3.18-2.81,12.72,12.72,0,0,1-2-4.47,23.37,23.37,0,0,1-.62-5.51,26.3,26.3,0,0,1,.69-6.06,14.53,14.53,0,0,1,2.07-4.95,9.11,9.11,0,0,1,3.37-3,8.89,8.89,0,0,1,4.12-1,15.11,15.11,0,0,1,4.61.74q0,1,.15,3.16a13.35,13.35,0,0,0-2.54-.93,9.22,9.22,0,0,0-2-.23,6.71,6.71,0,0,0-3.07.74,7.11,7.11,0,0,0-2.59,2.38,12.21,12.21,0,0,0-1.73,4,20.14,20.14,0,0,0-.6,4.95,20.79,20.79,0,0,0,.48,4.53,10.52,10.52,0,0,0,1.46,3.62,7.11,7.11,0,0,0,2.35,2.26,6,6,0,0,0,3.05.79A12.08,12.08,0,0,0,230.95,153.93Z"/><path class="a" d="M233.81,157.5l0.33-8.88,0.31-12.1,0.08-6.88,1.22,0,1.2,0-0.29,7.09L236.56,141c0.22-.58.4-1.05,0.56-1.4l0.61-1,0.77-.89,0.9-.64a5.14,5.14,0,0,1,1.2-.46,5.76,5.76,0,0,1,1.46-.18,6.13,6.13,0,0,1,2.18.39A4.2,4.2,0,0,1,246,138a5,5,0,0,1,1,2.15,11.42,11.42,0,0,1,.28,2.53c0,0.33,0,.79,0,1.34,0,0.84-.06,1.82-0.11,3l-0.23,7.5c0,0.81,0,1.81-.05,3-0.52,0-.92,0-1.2,0s-0.73,0-1.28,0q0.15-2.21.34-6.93T245,144a8.05,8.05,0,0,0-.39-2.7,3.16,3.16,0,0,0-1.29-1.64,3.7,3.7,0,0,0-2-.57,4,4,0,0,0-1.89.47,4.08,4.08,0,0,0-1.35,1.2,6.36,6.36,0,0,0-.89,1.9,14.26,14.26,0,0,0-.51,2.43c-0.16,1.29-.26,3.09-0.33,5.38q-0.06,2.06-.15,7c-0.5,0-.88,0-1.13,0Z"/><path class="a" d="M250.56,157.5l0.23-5.14,0.26-8.78,0.11-6.75,1.24,0,1.21,0q-0.15,3.18-.28,6.66t-0.2,7.6c-0.05,2.75-.08,4.88-0.08,6.41l-1.21,0Zm0.62-25.12c0-1.28,0-2.24,0-2.9,0.49,0,.93,0,1.31,0s0.9,0,1.29,0c0,0.42,0,1.39-.08,2.9l-1.25,0Z"/><path class="a" d="M257.54,140.11c0.08-.6.16-1.48,0.26-2.65a16.34,16.34,0,0,1,2.8-.86,11.67,11.67,0,0,1,2.32-.24,7.39,7.39,0,0,1,2.26.33,4,4,0,0,1,1.75,1.09,3.83,3.83,0,0,1,.93,1.73,9.34,9.34,0,0,1,.23,2.11c0,0.94-.05,2.51-0.14,4.72s-0.16,4.25-.21,6.13-0.08,3.55-.08,5c-0.48,0-.88,0-1.18,0s-0.7,0-1.23,0l0.28-5.57,0.21-6.59-0.71.78-0.53.42-0.65.37c-0.24.12-.7,0.32-1.39,0.6s-1.17.51-1.46,0.66a7.69,7.69,0,0,0-1.47.9l-0.9,1-0.52,1.06a5.42,5.42,0,0,0-.17,1.37,4,4,0,0,0,.43,1.92,2.47,2.47,0,0,0,1.08,1.14,3.56,3.56,0,0,0,1.57.31l1.18-.12a7.42,7.42,0,0,0,1.65-.62c-0.12.53-.27,1.34-0.43,2.43a10.06,10.06,0,0,1-1.6.35l-1.17.07a5.35,5.35,0,0,1-2.88-.65,3.9,3.9,0,0,1-1.55-2,8.1,8.1,0,0,1-.51-2.91,7.37,7.37,0,0,1,.18-1.69,7,7,0,0,1,.49-1.41,5.52,5.52,0,0,1,.88-1.26,6.18,6.18,0,0,1,1.19-1,13.64,13.64,0,0,1,1.46-.8q0.83-.39,2.68-1.07l1-.42,0.74-.42,0.57-.48,0.44-.67,0.3-.81,0.09-.82a3.28,3.28,0,0,0-.43-1.71,2.32,2.32,0,0,0-1.12-1,4.16,4.16,0,0,0-1.63-.29,7.78,7.78,0,0,0-1.79.21,8.91,8.91,0,0,0-1.59.51A15.11,15.11,0,0,0,257.54,140.11Z"/><path class="a" d="M271.23,157.5q0.65-12.8.67-20.67l1.21,0,1.17,0-0.18,4.08c0.22-.57.4-1,0.54-1.31l0.54-1,0.79-1,1.07-.73,1.26-.44,1.27-.14a6,6,0,0,1,2.23.43,4,4,0,0,1,1.77,1.39,5.44,5.44,0,0,1,.93,2.18,13.18,13.18,0,0,1,.24,2.58c0,0.18,0,.52,0,1s0,1.17-.05,2l-0.27,8.55q0,1.22,0,3l-1.15,0-1.24,0q0.14-2.47.2-4.76l0.17-4.75c0.06-1.63.08-2.86,0.08-3.69a8.41,8.41,0,0,0-.4-2.87,3.31,3.31,0,0,0-1.29-1.65,3.55,3.55,0,0,0-2-.58,3.64,3.64,0,0,0-2.68,1.12,6.91,6.91,0,0,0-1.58,3,19.76,19.76,0,0,0-.55,4c-0.14,2.13-.23,5.53-0.29,10.18-0.5,0-.89,0-1.16,0S271.79,157.47,271.23,157.5Z"/><path class="a" d="M288.76,163.48a17,17,0,0,0,3,1.11,9.57,9.57,0,0,0,2.18.28,4.67,4.67,0,0,0,2.07-.47,3.93,3.93,0,0,0,1.35-1.1,4.57,4.57,0,0,0,.71-1.43,15,15,0,0,0,.5-3q0.12-1.45.18-5.78c-0.21.61-.41,1.11-0.58,1.49a6.51,6.51,0,0,1-.71,1.17,5.47,5.47,0,0,1-1,1.07,4.7,4.7,0,0,1-1.37.74,4.82,4.82,0,0,1-1.61.28,5.16,5.16,0,0,1-2.29-.51,5,5,0,0,1-1.91-1.69,8.62,8.62,0,0,1-1.28-3,16.54,16.54,0,0,1-.44-3.83,20.88,20.88,0,0,1,.65-5.25,12.05,12.05,0,0,1,1.91-4.17,7.24,7.24,0,0,1,2.84-2.37,8.52,8.52,0,0,1,3.46-.69,20.41,20.41,0,0,1,5.15.83l-0.15,2.51L301,151.16c0,0.23,0,1.62-.07,4.16l-0.08,4.23a19.64,19.64,0,0,1-.24,2.37,10.76,10.76,0,0,1-.43,1.59,5.94,5.94,0,0,1-.6,1.26l-0.82,1.07-1,.75a6.05,6.05,0,0,1-1.56.59,7.59,7.59,0,0,1-1.83.23,16.19,16.19,0,0,1-2.59-.21,15.93,15.93,0,0,1-2.85-.78l0-1.12C288.85,165,288.81,164.42,288.76,163.48Zm10.34-24.08a9.8,9.8,0,0,0-2.81-.45,6.25,6.25,0,0,0-2.44.47,5.09,5.09,0,0,0-2.06,1.72,9.28,9.28,0,0,0-1.46,3.22,15.88,15.88,0,0,0-.52,4.1,12.85,12.85,0,0,0,.48,3.61,4.86,4.86,0,0,0,1.47,2.46,3.43,3.43,0,0,0,2.26.83,3.35,3.35,0,0,0,1.94-.58,5,5,0,0,0,1.51-1.79,10.23,10.23,0,0,0,1-2.86,23,23,0,0,0,.39-3.39C299,145.55,299,143.1,299.09,139.4Z"/><path class="a" d="M304.5,157.5l0.14-3c0-.63.06-1.61,0.11-3l0.32-12.43c0-1,0-1.8,0-2.33l1.16,0,1.12,0-0.12,3.79a17.35,17.35,0,0,1,.83-1.81,5.06,5.06,0,0,1,1-1.25,4.35,4.35,0,0,1,1.38-.89,4.22,4.22,0,0,1,1.61-.31l1.14,0.2,1,0.57L315,138l0.55,1a11.29,11.29,0,0,1,.43,1.59,6.88,6.88,0,0,1,2.05-3.29,4.4,4.4,0,0,1,2.75-.94,4,4,0,0,1,1.88.47,3.65,3.65,0,0,1,1.45,1.34,5.45,5.45,0,0,1,.71,1.82,10.12,10.12,0,0,1,.19,1.91c0,0.65,0,1.63-.1,2.94s-0.13,3.3-.21,6-0.12,4.9-.13,6.69c-0.48,0-.85,0-1.12,0s-0.71,0-1.28,0c0.1-1.84.18-3.84,0.26-6l0.17-5.06c0-1.22.07-2.28,0.07-3.16a8.29,8.29,0,0,0-.16-1.86,3.76,3.76,0,0,0-.52-1.2l-0.88-.81a2.56,2.56,0,0,0-1.2-.28l-1,.18-0.84.56-0.79,1a5.8,5.8,0,0,0-.59,1.25,9.56,9.56,0,0,0-.42,1.7,27.06,27.06,0,0,0-.29,3q-0.09,1.89-.14,5l-0.11,5.71c-0.52,0-.91,0-1.17,0l-1.23,0c0.09-1.69.16-3.42,0.22-5.2l0.16-4.94c0-1.52.06-2.82,0.06-3.9a10.06,10.06,0,0,0-.13-1.76,3.94,3.94,0,0,0-.51-1.33,2.61,2.61,0,0,0-.89-0.91l-1.16-.32a2.48,2.48,0,0,0-1.28.36,3.79,3.79,0,0,0-1.12,1,6.34,6.34,0,0,0-.86,1.71,13.07,13.07,0,0,0-.54,2.65q-0.2,1.64-.31,5.72c-0.08,2.72-.12,5-0.12,6.88l-1.18,0Z"/><path class="a" d="M329,140.11c0.08-.6.17-1.48,0.25-2.65a16.51,16.51,0,0,1,2.8-.86,11.67,11.67,0,0,1,2.32-.24,7.38,7.38,0,0,1,2.26.33,4,4,0,0,1,1.76,1.09,3.89,3.89,0,0,1,.93,1.73,9.41,9.41,0,0,1,.23,2.11q0,1.4-.14,4.72t-0.21,6.13c-0.05,1.88-.08,3.55-0.08,5-0.48,0-.87,0-1.18,0s-0.7,0-1.23,0l0.28-5.57,0.21-6.59-0.71.78-0.53.42-0.65.37c-0.24.12-.7,0.32-1.39,0.6s-1.17.51-1.46,0.66a7.65,7.65,0,0,0-1.47.9l-0.9,1-0.51,1.06a5.42,5.42,0,0,0-.17,1.37,4.06,4.06,0,0,0,.43,1.92,2.48,2.48,0,0,0,1.08,1.14,3.57,3.57,0,0,0,1.57.31l1.18-.12a7.49,7.49,0,0,0,1.66-.62q-0.19.79-.43,2.43a10.13,10.13,0,0,1-1.6.35l-1.16.07a5.37,5.37,0,0,1-2.88-.65,3.93,3.93,0,0,1-1.55-2,8.14,8.14,0,0,1-.51-2.91,7.42,7.42,0,0,1,.18-1.69,6.79,6.79,0,0,1,.49-1.41,5.71,5.71,0,0,1,.88-1.26,6.28,6.28,0,0,1,1.2-1,13.77,13.77,0,0,1,1.46-.8q0.84-.39,2.68-1.07l1-.42,0.74-.42,0.57-.48,0.44-.67,0.3-.81,0.09-.82a3.26,3.26,0,0,0-.43-1.71,2.3,2.3,0,0,0-1.12-1,4.16,4.16,0,0,0-1.63-.29,7.78,7.78,0,0,0-1.79.21,8.86,8.86,0,0,0-1.59.51A15.47,15.47,0,0,0,329,140.11Z"/><path class="a" d="M342.84,157.5l0.23-5.14,0.26-8.78,0.11-6.75,1.24,0,1.21,0q-0.15,3.18-.28,6.66t-0.2,7.6c0,2.75-.07,4.88-0.07,6.41l-1.21,0Zm0.62-25.12c0-1.28,0-2.24,0-2.9,0.5,0,.93,0,1.31,0s0.9,0,1.29,0c0,0.42,0,1.39-.08,2.9l-1.25,0Z"/><path class="b" d="M179.55,85.09h3.73c13.5,0,23.91-6.64,23.91-22.37,0-16.81-9.07-23.92-23.91-23.92h-3.73V85.09Zm-40.67,35.85V1.34h47.49c37.57,0,61.49,17.61,61.49,61.55,0,35.51-18.6,58.05-51.39,58.05H138.88Z"/><path class="b" d="M280.4,82.76h0.76l18,38.66H346.4l-28-49.93c15.26-5.44,23.09-19.28,23.09-31.3C341.5,9.83,326.19,1,300.75,1H240.33V121.42H280.4V82.76Zm0-48.84h6c7,0,13.18,1.1,13.18,10.39,0,8.92-6.72,10-13.47,10H280.4V33.92Z"/><rect class="c" x="55.05" y="1.02" width="119.09" height="120.39"/><polygon class="d" points="13.58 1 0 37.46 13.58 37.46 13.58 159.16 40.79 159.16 40.79 1 13.58 1"/><path class="e" d="M107,124.41c22.62,0,38.46-17.53,38.46-41.91V0H105.33V73.82c0,5.16-1.56,13.13-8.74,14.28-4.66.2-6.53-.48-10.29-1.15v35.51c3.15,1,15.17,2.21,20.69,2"/></svg>