<?xml version="1.0" standalone="no"?>
<!DOCTYPE svg PUBLIC "-//W3C//DTD SVG 20010904//EN"
 "http://www.w3.org/TR/2001/REC-SVG-20010904/DTD/svg10.dtd">
<svg version="1.0" xmlns="http://www.w3.org/2000/svg"
 width="328.000000pt" height="200.000000pt" viewBox="0 0 328.000000 200.000000"
 preserveAspectRatio="xMidYMid meet">
<metadata>
Created by potrace 1.15, written by Peter Selinger 2001-2017
</metadata>
<g transform="translate(0.000000,200.000000) scale(0.100000,-0.100000)"
fill="#000000" stroke="none">
<path d="M1510 1925 l0 -75 -755 0 -755 0 0 -50 0 -50 755 0 755 0 0 -875 0
-875 35 0 35 0 2 862 3 862 42 -104 c99 -249 395 -956 403 -964 5 -5 12 -8 14
-5 4 4 -22 68 -305 749 -76 185 -139 339 -139 343 0 4 45 7 100 7 l100 0 0 50
0 50 -110 0 -110 0 0 75 0 75 -35 0 -35 0 0 -75z"/>
<path d="M2226 1655 c-21 -7 -51 -26 -67 -41 l-29 -28 0 37 c0 33 -3 37 -25
37 l-25 0 0 -241 c0 -216 2 -241 16 -235 9 3 20 6 25 6 5 0 9 70 9 160 0 177
5 197 60 244 24 19 43 26 75 26 108 0 125 -36 125 -265 0 -90 4 -166 9 -169 5
-4 16 -3 25 0 14 5 16 29 16 171 0 128 3 170 15 194 23 43 71 69 128 69 40 0
54 -5 78 -29 l29 -29 0 -186 c0 -179 1 -185 21 -191 14 -5 25 -2 31 6 5 8 7
93 5 189 -3 196 -14 237 -65 264 -75 39 -155 29 -218 -26 l-34 -30 -22 27
c-40 52 -108 67 -182 40z"/>
<path d="M2992 1659 c-50 -15 -108 -79 -126 -140 -34 -113 -12 -223 55 -284
50 -45 76 -55 146 -55 60 0 109 18 142 54 19 20 20 25 7 35 -12 10 -22 8 -50
-14 -92 -70 -224 -23 -255 92 -22 77 -31 73 160 73 l172 0 -6 60 c-8 71 -25
108 -67 143 -50 42 -112 55 -178 36z m142 -70 c31 -27 56 -78 56 -116 0 -10
-34 -13 -138 -13 -76 0 -141 3 -145 6 -9 10 22 87 46 112 29 31 52 41 104 41
34 1 50 -5 77 -30z"/>
<path d="M1890 1426 c0 -243 1 -246 41 -246 5 0 9 101 9 240 l0 240 -25 0 -25
0 0 -234z"/>
</g>
</svg>
