<?xml version="1.0" encoding="utf-8"?>
<!-- Generator: Adobe Illustrator 16.0.0, SVG Export Plug-In . SVG Version: 6.00 Build 0)  -->
<!DOCTYPE svg PUBLIC "-//W3C//DTD SVG 1.1//EN" "http://www.w3.org/Graphics/SVG/1.1/DTD/svg11.dtd">
<svg version="1.1" id="Layer_1" xmlns="http://www.w3.org/2000/svg" xmlns:xlink="http://www.w3.org/1999/xlink" x="0px" y="0px"
	 width="512px" height="512px" viewBox="0 0 512 512" enable-background="new 0 0 512 512" xml:space="preserve">
<g>
	<path fill="#009999" d="M73.313,303.649c-2.207,7.608-2.615,10.784,4.992,12.993l220.947,65.371
		c7.608,2.211,15.57-2.166,17.777-9.773l64.173-220.945c2.212-7.608,9.793-21.543,2.18-23.754L73.313,303.649z"/>
	<path fill="#999999" d="M327.16,378.561c2.578,4.64,10.819-4.446,15.457-7.022l90.538-74.834c4.64-2.577,8.703-8.429,6.127-13.069
		l-32.996-134.766c-2.575-4.64-2.677-21.364-7.317-18.788L327.16,378.561z"/>
</g>
<g display="none">
	<path display="inline" fill="#00A79D" d="M104.889,387.608H89.745c-2.918,0.228-4.375,1.068-4.375,2.525
		c0,1.236,0.615,1.852,1.851,1.852l15.986,10.937c3.925,2.582,5.888,6.003,5.888,10.265c0,4.603-1.963,8.413-5.888,11.443
		c-3.479,2.804-7.63,4.208-12.453,4.208H69.89V414.87h18.172c2.692,0,4.039-0.674,4.039-2.02c0-1.234-1.068-2.579-3.197-4.039
		l-13.967-8.75c-3.365-2.356-5.047-5.608-5.047-9.761c0-4.374,1.569-8.074,4.711-11.104c3.252-2.915,7.177-4.375,11.778-4.375h18.51
		V387.608z"/>
	<path display="inline" fill="#999999" d="M140.562,409.821l-7.236-8.077l14.303-11.443c-1.346-1.682-3.592-2.522-6.731-2.522
		c-3.927,0-6.73,1.122-8.413,3.366c-2.692,2.69-4.038,6.114-4.038,10.263c0,4.04,1.346,7.404,4.038,10.098
		c2.356,3.028,5.663,4.542,9.928,4.542c3.366,0,6.281-1.008,8.75-3.027c2.579-2.02,4.317-4.544,5.216-7.572h14.976
		c-1.01,7.965-4.656,14.133-10.937,18.511c-5.498,4.036-11.779,6.056-18.847,6.056h-2.019c-7.63,0-13.799-2.634-18.51-7.91
		c-4.825-4.82-7.235-11.159-7.235-19.012c0-3.03,0.392-5.946,1.178-8.752c0.784-2.801,1.962-5.608,3.535-8.413
		c2.018-3.7,5.494-6.73,10.433-9.085c4.262-2.021,8.804-3.03,13.629-3.03c11.666,0,20.417,5.161,26.25,15.479L140.562,409.821z"/>
	<path display="inline" fill="#999999" d="M202.988,388.619h-10.433v40.219H177.58v-57.045c0-6.168,1.851-11.106,5.552-14.809
		c3.702-3.813,8.638-5.722,14.808-5.722c1.121,0,2.075,0.028,2.861,0.085c0.784,0.057,1.514,0.141,2.187,0.253v13.965
		c-0.899,0-1.573-0.027-2.02-0.083c-0.45-0.055-0.786-0.084-1.009-0.084h-1.01c-4.711,0-7.067,1.964-7.067,5.889
		c0,0.45,0.11,1.067,0.335,1.851c0.225,0.786,0.337,1.346,0.337,1.684h10.433V388.619z"/>
	<path display="inline" fill="#999999" d="M223.684,409.821c0,2.021,0.896,3.591,2.693,4.712c1.683,1.347,3.475,2.018,5.385,2.018
		c4.598,0,6.898-2.241,6.898-6.729v-35h14.977v35c0,2.021,0.784,3.646,2.356,4.88c1.792,1.235,3.588,1.85,5.384,1.85
		c5.387,0,8.077-2.579,8.077-7.739v-33.99h14.975v38.365c0,5.274-2.131,9.536-6.393,12.788c-3.592,2.808-8.246,4.207-13.967,4.207
		c-8.527,0-14.64-2.748-18.341-8.244c-3.815,5.721-9.201,8.58-16.154,8.58c-4.712,0-9.256-1.514-13.63-4.543
		c-4.825-3.14-7.236-7.066-7.236-11.778v-39.375h14.976V409.821z"/>
	<path display="inline" fill="#999999" d="M329.188,428.838v-31.469c0-2.803-1.18-5.049-3.533-6.73
		c-1.909-1.569-4.433-2.355-7.573-2.355c-7.181,0-11.442,3.591-12.788,10.77v2.523c-0.337,3.815,0.896,7.012,3.701,9.591
		c2.243,2.245,5.216,3.366,8.919,3.366c3.139,0,5.662-0.729,7.572-2.188v15.817c-2.354,0.675-4.993,1.009-7.908,1.009
		c-6.396,0-11.893-1.569-16.491-4.71c-5.049-3.59-8.246-8.247-9.591-13.966c-1.009-3.704-1.515-6.788-1.515-9.258
		c0-8.075,2.802-14.808,8.412-20.191c1.907-1.905,3.872-3.475,5.891-4.711c2.021-1.233,4.149-2.13,6.393-2.692
		c1.233-0.446,3.31-0.674,6.228-0.674c6.842,0,12.79,1.628,17.836,4.881c6.395,3.814,9.593,9.423,9.593,16.827v34.16H329.188z"/>
	<path display="inline" fill="#999999" d="M363.514,384.917c4.374-6.729,9.702-10.096,15.985-10.096h1.683v14.47
		c-0.673,0-1.292-0.024-1.852-0.083c-0.563-0.055-1.01-0.084-1.346-0.084h-1.01c-7.182,0-10.769,3.87-10.769,11.61v28.104h-15.817
		v-54.017h13.125V384.917z"/>
	<path display="inline" fill="#999999" d="M413.151,409.821l-7.236-8.077l14.302-11.443c-1.343-1.682-3.591-2.522-6.729-2.522
		c-3.929,0-6.729,1.122-8.414,3.366c-2.692,2.69-4.037,6.114-4.037,10.263c0,4.04,1.345,7.404,4.037,10.098
		c2.355,3.028,5.664,4.542,9.929,4.542c3.367,0,6.282-1.008,8.749-3.027c2.581-2.02,4.317-4.544,5.217-7.572h14.978
		c-1.01,7.965-4.658,14.133-10.938,18.511c-5.498,4.036-11.78,6.056-18.847,6.056h-2.02c-7.632,0-13.8-2.634-18.51-7.91
		c-4.825-4.82-7.235-11.159-7.235-19.012c0-3.03,0.392-5.946,1.177-8.752c0.786-2.801,1.962-5.608,3.533-8.413
		c2.021-3.7,5.497-6.73,10.436-9.085c4.26-2.021,8.802-3.03,13.629-3.03c11.667,0,20.416,5.161,26.25,15.479L413.151,409.821z"/>
</g>
</svg>
