<svg id="svg" version="1.1" width="400" height="400" xmlns="http://www.w3.org/2000/svg" xmlns:xlink="http://www.w3.org/1999/xlink" style="display: block;"><g id="svgg"><path id="path0" d="M75.357 178.800 C 75.357 181.770,75.420 182.985,75.497 181.500 C 75.574 180.015,75.574 177.585,75.497 176.100 C 75.420 174.615,75.357 175.830,75.357 178.800 " stroke="none" fill="#000000" fill-rule="evenodd"></path><path id="path1" d="" stroke="none" fill="#808080" fill-rule="evenodd"></path><path id="path2" d="M183.933 0.786 C 183.856 1.010,181.145 1.193,177.502 1.222 C 174.038 1.249,171.102 1.435,170.978 1.635 C 170.854 1.836,169.424 2.000,167.800 2.000 C 166.176 2.000,164.736 2.180,164.600 2.400 C 164.464 2.620,163.193 2.800,161.776 2.800 C 160.325 2.800,159.200 2.975,159.200 3.200 C 159.200 3.420,158.210 3.600,157.000 3.600 C 155.790 3.600,154.800 3.780,154.800 4.000 C 154.800 4.220,153.825 4.400,152.633 4.400 C 151.442 4.400,150.407 4.572,150.333 4.782 C 150.260 4.993,149.525 5.210,148.700 5.264 C 147.875 5.319,147.200 5.507,147.200 5.682 C 147.200 5.857,146.581 6.000,145.824 6.000 C 145.067 6.000,144.336 6.180,144.200 6.400 C 144.064 6.620,143.333 6.800,142.576 6.800 C 141.819 6.800,141.200 6.980,141.200 7.200 C 141.200 7.420,140.581 7.600,139.824 7.600 C 139.067 7.600,138.336 7.780,138.200 8.000 C 138.064 8.220,137.524 8.400,137.000 8.400 C 136.476 8.400,135.943 8.569,135.816 8.775 C 135.688 8.981,135.273 9.151,134.892 9.153 C 133.260 9.162,131.091 9.829,128.756 11.038 C 128.182 11.336,127.601 11.468,127.466 11.332 C 127.330 11.197,126.990 11.265,126.710 11.485 C 126.429 11.704,125.345 12.129,124.300 12.429 C 123.255 12.729,122.400 13.115,122.400 13.287 C 122.400 13.459,121.860 13.600,121.200 13.600 C 120.540 13.600,120.000 13.757,120.000 13.948 C 120.000 14.139,119.185 14.524,118.190 14.803 C 117.194 15.082,116.283 15.465,116.166 15.655 C 116.049 15.845,115.603 16.000,115.176 16.000 C 114.749 16.000,114.400 16.136,114.400 16.302 C 114.400 16.469,113.815 16.845,113.100 17.138 C 110.666 18.136,106.600 20.196,106.467 20.498 C 106.393 20.664,105.988 20.800,105.567 20.800 C 105.145 20.800,104.800 20.980,104.800 21.200 C 104.800 21.420,104.474 21.600,104.075 21.600 C 103.677 21.600,102.964 21.960,102.492 22.400 C 102.020 22.840,101.356 23.200,101.017 23.200 C 100.678 23.200,100.400 23.380,100.400 23.600 C 100.400 23.820,100.055 24.000,99.633 24.000 C 99.212 24.000,98.807 24.166,98.733 24.370 C 98.660 24.573,98.330 24.798,98.000 24.870 C 97.670 24.941,97.099 25.327,96.730 25.726 C 96.362 26.126,95.912 26.438,95.730 26.421 C 95.549 26.403,94.709 26.841,93.864 27.394 C 93.019 27.947,92.074 28.400,91.764 28.400 C 91.454 28.400,91.200 28.568,91.200 28.773 C 91.200 28.978,90.834 29.262,90.387 29.404 C 89.940 29.546,89.172 30.065,88.680 30.556 C 88.188 31.048,87.217 31.703,86.522 32.010 C 85.826 32.318,85.345 32.712,85.452 32.885 C 85.560 33.058,85.277 33.200,84.824 33.200 C 84.371 33.200,84.000 33.380,84.000 33.600 C 84.000 33.820,83.757 34.000,83.459 34.000 C 83.162 34.000,82.393 34.495,81.751 35.100 C 81.108 35.705,79.750 36.830,78.732 37.600 C 77.714 38.370,76.981 39.163,77.103 39.362 C 77.224 39.561,77.126 39.602,76.885 39.452 C 76.643 39.303,75.830 39.797,75.078 40.549 C 74.325 41.301,73.252 42.161,72.693 42.458 C 71.498 43.095,68.546 45.617,64.962 49.065 C 63.553 50.421,62.400 51.421,62.400 51.288 C 62.400 51.155,61.905 51.655,61.300 52.401 C 60.695 53.146,58.175 55.779,55.700 58.252 C 53.225 60.725,51.200 62.858,51.200 62.992 C 51.200 63.126,50.525 63.963,49.700 64.852 C 48.875 65.741,48.011 66.819,47.779 67.247 C 47.548 67.675,47.233 67.899,47.079 67.746 C 46.926 67.592,46.800 67.668,46.800 67.915 C 46.800 68.162,46.387 68.777,45.881 69.282 C 45.376 69.787,44.611 70.824,44.181 71.586 C 43.752 72.348,42.992 73.395,42.492 73.912 C 41.993 74.429,41.706 75.048,41.854 75.288 C 42.002 75.527,41.943 75.612,41.722 75.475 C 41.501 75.339,41.083 75.671,40.793 76.214 C 40.502 76.756,40.115 77.200,39.932 77.200 C 39.750 77.200,39.600 77.425,39.600 77.700 C 39.599 77.975,39.194 78.680,38.700 79.266 C 38.205 79.853,37.500 80.693,37.133 81.133 C 36.766 81.572,36.571 82.038,36.700 82.166 C 36.828 82.295,36.723 82.400,36.467 82.400 C 36.210 82.400,36.000 82.676,36.000 83.013 C 36.000 83.349,35.730 83.729,35.400 83.855 C 35.070 83.982,34.800 84.426,34.800 84.843 C 34.800 85.259,34.650 85.600,34.468 85.600 C 34.285 85.600,33.880 86.095,33.568 86.700 C 33.255 87.305,32.685 88.149,32.300 88.575 C 31.915 89.002,31.600 89.587,31.600 89.875 C 31.600 90.164,31.420 90.400,31.200 90.400 C 30.980 90.400,30.800 90.760,30.800 91.200 C 30.800 91.640,30.609 92.000,30.376 92.000 C 30.143 92.000,30.057 92.169,30.185 92.375 C 30.312 92.582,30.174 92.897,29.876 93.075 C 29.248 93.453,25.600 100.578,25.600 101.427 C 25.600 101.742,25.420 102.000,25.200 102.000 C 24.980 102.000,24.800 102.360,24.800 102.800 C 24.800 103.240,24.620 103.600,24.400 103.600 C 24.180 103.600,24.000 103.834,24.000 104.120 C 24.000 104.856,23.059 106.793,22.700 106.797 C 22.535 106.799,22.400 107.160,22.400 107.600 C 22.400 108.040,22.220 108.400,22.000 108.400 C 21.780 108.400,21.600 108.861,21.600 109.424 C 21.600 110.004,21.427 110.340,21.200 110.200 C 20.980 110.064,20.800 110.323,20.800 110.776 C 20.800 111.229,20.620 111.600,20.400 111.600 C 20.180 111.600,20.000 112.050,20.000 112.600 C 20.000 113.150,19.853 113.600,19.672 113.600 C 19.492 113.600,19.100 114.500,18.800 115.600 C 18.500 116.700,18.108 117.600,17.928 117.600 C 17.747 117.600,17.600 118.039,17.600 118.576 C 17.600 119.113,17.420 119.664,17.200 119.800 C 16.980 119.936,16.800 120.397,16.800 120.824 C 16.800 121.251,16.643 121.600,16.450 121.600 C 16.258 121.600,16.100 122.088,16.100 122.683 C 16.100 123.279,15.898 123.834,15.650 123.917 C 15.403 123.999,15.200 124.592,15.200 125.233 C 15.200 125.875,15.020 126.400,14.800 126.400 C 14.580 126.400,14.400 126.940,14.400 127.600 C 14.400 128.260,14.220 128.800,14.000 128.800 C 13.780 128.800,13.600 129.329,13.600 129.976 C 13.600 130.623,13.420 131.264,13.200 131.400 C 12.980 131.536,12.800 132.004,12.800 132.440 C 12.800 132.876,12.421 134.406,11.958 135.841 C 11.494 137.275,11.225 138.558,11.359 138.692 C 11.493 138.826,11.361 139.311,11.065 139.768 C 10.582 140.514,10.303 141.636,9.812 144.800 C 9.726 145.350,9.478 146.587,9.260 147.549 C 9.041 148.511,8.951 149.528,9.059 149.809 C 9.166 150.089,9.062 150.438,8.827 150.583 C 8.592 150.728,8.400 151.827,8.400 153.024 C 8.400 154.221,8.220 155.200,8.000 155.200 C 7.772 155.200,7.600 156.392,7.600 157.976 C 7.600 159.503,7.420 160.864,7.200 161.000 C 6.980 161.136,6.800 162.857,6.800 164.824 C 6.800 166.941,6.637 168.400,6.400 168.400 C 6.146 168.400,6.000 171.538,6.000 177.014 L 6.000 185.628 10.100 185.514 L 14.200 185.400 14.322 183.000 C 14.389 181.680,14.614 180.429,14.822 180.220 C 15.030 180.011,15.200 177.097,15.200 173.744 C 15.200 170.391,15.340 167.561,15.511 167.455 C 15.682 167.349,15.876 165.946,15.942 164.336 C 16.007 162.726,16.201 161.317,16.373 161.205 C 16.545 161.092,16.717 159.830,16.756 158.400 C 16.795 156.970,17.001 155.740,17.214 155.667 C 17.426 155.593,17.600 154.648,17.600 153.567 C 17.600 152.485,17.780 151.600,18.000 151.600 C 18.220 151.600,18.400 150.801,18.400 149.824 C 18.400 148.847,18.552 147.953,18.739 147.838 C 18.925 147.723,19.093 147.083,19.112 146.417 C 19.144 145.290,19.615 143.483,20.451 141.281 C 20.643 140.776,20.800 139.831,20.800 139.181 C 20.800 138.532,20.980 138.000,21.200 138.000 C 21.420 138.000,21.600 137.496,21.600 136.880 C 21.600 136.264,21.816 135.544,22.080 135.280 C 22.344 135.016,22.438 134.800,22.290 134.800 C 22.141 134.800,22.212 134.305,22.447 133.700 C 22.681 133.095,22.955 132.170,23.055 131.644 C 23.154 131.119,23.498 130.062,23.818 129.295 C 24.138 128.529,24.400 127.474,24.400 126.951 C 24.400 126.428,24.541 126.000,24.713 126.000 C 24.885 126.000,25.066 125.505,25.116 124.900 C 25.166 124.295,25.385 123.740,25.603 123.667 C 25.822 123.593,26.000 123.199,26.000 122.790 C 26.000 122.382,26.180 121.936,26.400 121.800 C 26.620 121.664,26.800 121.203,26.800 120.776 C 26.800 120.349,26.980 120.000,27.200 120.000 C 27.420 120.000,27.600 119.651,27.600 119.224 C 27.600 118.797,27.780 118.336,28.000 118.200 C 28.220 118.064,28.400 117.413,28.400 116.753 C 28.400 116.055,28.567 115.656,28.800 115.800 C 29.020 115.936,29.200 115.772,29.200 115.436 C 29.200 115.099,29.560 114.183,30.000 113.400 C 30.440 112.617,30.800 111.711,30.800 111.388 C 30.800 111.065,30.942 110.800,31.115 110.800 C 31.288 110.800,31.460 110.398,31.497 109.906 C 31.534 109.414,31.752 108.949,31.982 108.873 C 32.212 108.796,32.400 108.388,32.400 107.967 C 32.400 107.545,32.536 107.200,32.702 107.200 C 32.869 107.200,33.257 106.615,33.565 105.900 C 33.873 105.185,34.457 104.122,34.863 103.538 C 35.268 102.954,35.600 102.189,35.600 101.838 C 35.600 101.487,35.791 101.200,36.024 101.200 C 36.257 101.200,36.336 101.020,36.200 100.800 C 36.064 100.580,36.145 100.400,36.380 100.400 C 36.614 100.400,37.095 99.680,37.447 98.800 C 37.799 97.920,38.258 97.200,38.467 97.200 C 38.676 97.200,38.736 97.020,38.600 96.800 C 38.464 96.580,38.498 96.399,38.676 96.397 C 38.854 96.395,39.187 95.990,39.417 95.497 C 40.315 93.563,41.834 90.967,42.500 90.227 C 42.885 89.799,43.200 89.202,43.200 88.901 C 43.200 88.599,43.380 88.464,43.600 88.600 C 43.820 88.736,44.000 88.644,44.000 88.396 C 44.000 87.902,46.140 84.662,47.283 83.425 C 47.678 82.998,48.000 82.505,48.000 82.329 C 48.000 82.023,48.831 80.911,49.900 79.784 C 50.175 79.494,50.400 79.146,50.400 79.010 C 50.400 78.875,50.854 78.310,51.408 77.756 C 51.962 77.202,52.727 76.265,53.108 75.674 C 53.860 74.507,54.694 73.487,56.700 71.276 C 57.415 70.488,58.000 69.579,58.000 69.255 C 58.000 68.931,58.108 68.774,58.239 68.906 C 58.548 69.215,61.141 66.696,60.920 66.300 C 60.828 66.135,61.033 66.000,61.376 66.000 C 61.719 66.000,62.000 65.822,62.000 65.606 C 62.000 65.237,69.872 57.200,70.233 57.200 C 70.324 57.200,71.562 56.030,72.985 54.600 C 74.408 53.170,75.731 52.000,75.925 52.000 C 76.119 52.000,77.413 50.920,78.800 49.600 C 80.187 48.280,81.595 47.200,81.928 47.200 C 82.261 47.200,82.415 47.082,82.271 46.937 C 82.126 46.793,82.951 46.055,84.104 45.298 C 85.257 44.541,86.346 43.665,86.525 43.352 C 86.703 43.039,87.018 42.888,87.225 43.015 C 87.431 43.143,87.600 43.057,87.600 42.824 C 87.600 42.591,87.881 42.400,88.224 42.400 C 88.567 42.400,88.763 42.263,88.660 42.096 C 88.556 41.929,89.176 41.450,90.036 41.032 C 90.896 40.614,91.600 40.120,91.600 39.936 C 91.600 39.751,91.836 39.600,92.125 39.600 C 92.413 39.600,93.006 39.285,93.442 38.900 C 94.447 38.012,96.391 36.817,97.300 36.529 C 97.685 36.407,98.000 36.148,98.000 35.953 C 98.000 35.759,98.270 35.600,98.600 35.600 C 98.930 35.600,99.200 35.420,99.200 35.200 C 99.200 34.980,99.455 34.800,99.767 34.800 C 100.078 34.800,100.393 34.634,100.467 34.430 C 100.540 34.227,100.855 34.002,101.167 33.930 C 101.478 33.859,102.063 33.485,102.467 33.100 C 102.870 32.715,103.571 32.400,104.024 32.400 C 104.477 32.400,104.736 32.220,104.600 32.000 C 104.464 31.780,104.723 31.600,105.176 31.600 C 105.629 31.600,106.000 31.420,106.000 31.200 C 106.000 30.980,106.270 30.800,106.600 30.800 C 106.930 30.800,107.200 30.620,107.200 30.400 C 107.200 30.180,107.560 30.000,108.000 30.000 C 108.440 30.000,108.801 29.865,108.803 29.700 C 108.807 29.341,110.744 28.400,111.480 28.400 C 111.766 28.400,112.000 28.220,112.000 28.000 C 112.000 27.780,112.360 27.600,112.800 27.600 C 113.240 27.600,113.600 27.420,113.600 27.200 C 113.600 26.980,113.960 26.800,114.400 26.800 C 114.840 26.800,115.200 26.620,115.200 26.400 C 115.200 26.180,115.560 26.000,116.000 26.000 C 116.440 26.000,116.800 25.820,116.800 25.600 C 116.800 25.380,117.079 25.200,117.420 25.200 C 117.761 25.200,118.616 24.894,119.320 24.521 C 120.024 24.148,120.780 23.823,121.000 23.799 C 121.220 23.776,121.940 23.528,122.600 23.249 C 123.260 22.970,124.283 22.645,124.874 22.526 C 125.465 22.407,126.044 22.063,126.159 21.762 C 126.276 21.458,126.647 21.320,126.990 21.451 C 127.331 21.582,127.833 21.513,128.105 21.297 C 128.377 21.081,129.292 20.681,130.139 20.408 C 130.985 20.136,132.132 19.676,132.688 19.388 C 133.245 19.099,133.947 18.958,134.250 19.074 C 134.552 19.191,134.800 19.130,134.800 18.940 C 134.800 18.545,137.599 17.600,138.770 17.600 C 139.201 17.600,139.664 17.420,139.800 17.200 C 139.936 16.980,140.487 16.800,141.024 16.800 C 141.561 16.800,142.000 16.620,142.000 16.400 C 142.000 16.180,142.810 16.000,143.800 16.000 C 144.790 16.000,145.600 15.820,145.600 15.600 C 145.600 15.380,146.129 15.200,146.776 15.200 C 147.423 15.200,148.064 15.020,148.200 14.800 C 148.336 14.580,149.247 14.400,150.224 14.400 C 151.201 14.400,152.000 14.220,152.000 14.000 C 152.000 13.780,152.810 13.600,153.800 13.600 C 154.790 13.600,155.600 13.420,155.600 13.200 C 155.600 12.980,156.500 12.800,157.600 12.800 C 158.700 12.800,159.600 12.620,159.600 12.400 C 159.600 12.178,160.667 12.000,162.000 12.000 C 163.333 12.000,164.400 11.822,164.400 11.600 C 164.400 11.370,165.640 11.200,167.320 11.200 C 168.926 11.200,170.411 11.031,170.620 10.824 C 170.829 10.617,173.070 10.348,175.600 10.226 C 178.130 10.103,182.357 9.901,184.992 9.776 C 190.575 9.511,190.388 9.663,190.388 5.400 C 190.389 0.347,190.426 0.400,186.987 0.400 C 185.381 0.400,184.007 0.574,183.933 0.786 M323.400 97.600 C 323.264 97.820,322.544 98.000,321.800 98.000 C 321.056 98.000,320.336 98.180,320.200 98.400 C 320.064 98.620,319.603 98.800,319.176 98.800 C 318.749 98.800,318.400 98.980,318.400 99.200 C 318.400 99.420,318.040 99.600,317.600 99.600 C 317.160 99.600,316.800 99.780,316.800 100.000 C 316.800 100.220,316.538 100.400,316.217 100.400 C 315.896 100.400,314.567 101.480,313.264 102.800 C 310.325 105.775,310.400 105.786,310.400 102.400 C 310.400 100.860,310.241 99.600,310.047 99.600 C 309.852 99.600,309.597 99.233,309.480 98.784 C 309.285 98.039,308.982 97.974,306.031 98.037 L 302.795 98.106 302.897 126.953 L 303.000 155.800 306.600 155.800 L 310.200 155.800 310.304 135.700 C 310.362 124.432,310.562 115.600,310.760 115.600 C 310.954 115.600,311.218 115.184,311.345 114.675 C 311.473 114.167,312.032 113.222,312.588 112.575 C 313.144 111.929,313.599 111.247,313.600 111.060 C 313.604 107.745,328.539 102.113,330.200 104.800 C 330.336 105.020,330.842 105.201,331.324 105.201 C 333.020 105.204,337.115 108.367,336.568 109.252 C 336.450 109.443,336.543 109.600,336.776 109.600 C 337.009 109.600,337.200 109.960,337.200 110.400 C 337.200 110.840,337.380 111.200,337.600 111.200 C 337.820 111.200,338.000 111.819,338.000 112.576 C 338.000 113.333,338.180 114.064,338.400 114.200 C 338.658 114.360,338.800 121.644,338.800 134.744 C 338.800 149.996,338.919 155.159,339.280 155.520 C 339.778 156.018,344.625 156.195,345.767 155.757 C 346.527 155.466,346.758 112.800,346.000 112.800 C 345.780 112.800,345.600 111.990,345.600 111.000 C 345.600 110.010,345.420 109.200,345.200 109.200 C 344.980 109.200,344.800 108.660,344.800 108.000 C 344.800 107.340,344.620 106.800,344.400 106.800 C 344.180 106.800,344.000 106.440,344.000 106.000 C 344.000 105.560,343.820 105.200,343.600 105.200 C 343.380 105.200,343.200 104.914,343.200 104.565 C 343.200 103.761,339.338 99.978,337.777 99.253 C 337.130 98.953,336.287 98.548,335.905 98.353 C 335.523 98.159,334.679 98.000,334.029 98.000 C 333.379 98.000,332.736 97.820,332.600 97.600 C 332.460 97.373,330.470 97.200,328.000 97.200 C 325.530 97.200,323.540 97.373,323.400 97.600 M223.040 175.440 C 220.660 177.820,221.427 183.200,224.147 183.200 C 224.506 183.200,224.800 183.380,224.800 183.600 C 224.800 183.820,225.610 184.000,226.600 184.000 C 227.590 184.000,228.400 183.820,228.400 183.600 C 228.400 183.380,228.678 183.200,229.018 183.200 C 230.468 183.200,231.600 181.347,231.600 178.972 C 231.600 174.307,226.343 172.137,223.040 175.440 M264.600 193.688 C 261.925 194.523,259.200 195.714,259.200 196.046 C 259.200 196.241,258.920 196.400,258.578 196.400 C 258.236 196.400,256.896 197.480,255.600 198.800 C 252.666 201.790,252.853 201.861,252.716 197.700 L 252.600 194.200 249.200 194.200 L 245.800 194.200 245.690 222.200 C 245.559 255.461,245.145 252.063,249.312 251.916 L 252.600 251.800 252.696 232.800 C 252.749 222.350,252.949 213.440,253.141 213.000 C 255.361 207.906,256.028 206.764,257.929 204.800 C 259.099 203.590,260.219 202.600,260.416 202.600 C 260.613 202.600,261.142 202.285,261.592 201.900 C 262.041 201.515,262.857 201.200,263.405 201.200 C 263.952 201.200,264.400 201.020,264.400 200.800 C 264.400 200.558,266.133 200.400,268.800 200.400 C 271.467 200.400,273.200 200.558,273.200 200.800 C 273.200 201.020,273.740 201.200,274.400 201.200 C 275.060 201.200,275.601 201.335,275.603 201.500 C 275.604 201.665,276.132 202.100,276.776 202.466 C 278.024 203.176,280.000 205.965,280.000 207.016 C 280.000 207.363,280.180 207.536,280.400 207.400 C 280.644 207.249,280.800 207.855,280.800 208.953 C 280.800 209.943,280.980 210.864,281.200 211.000 C 281.458 211.160,281.600 218.471,281.600 231.624 L 281.600 252.000 284.900 251.994 C 286.715 251.991,288.420 251.848,288.689 251.677 C 289.061 251.441,289.204 246.633,289.289 231.583 C 289.363 218.374,289.544 211.534,289.832 211.000 C 291.054 208.738,291.600 207.473,291.600 206.901 C 291.600 206.552,291.696 206.363,291.813 206.480 C 291.930 206.597,292.875 205.820,293.913 204.753 C 294.951 203.686,296.115 202.810,296.500 202.806 C 296.885 202.803,297.201 202.665,297.203 202.500 C 297.207 202.112,299.169 201.200,300.000 201.200 C 300.352 201.200,300.828 201.012,301.057 200.783 C 301.652 200.188,307.796 200.252,309.921 200.875 C 313.090 201.805,316.800 205.991,316.800 208.638 C 316.800 209.167,316.978 209.600,317.196 209.600 C 317.452 209.600,317.630 217.095,317.696 230.700 L 317.800 251.800 321.507 251.915 L 325.213 252.030 325.084 230.115 C 324.943 206.490,324.877 205.665,322.783 201.626 C 321.614 199.372,319.118 196.400,318.395 196.400 C 318.178 196.400,318.000 196.264,318.000 196.098 C 318.000 195.755,316.550 195.102,314.200 194.388 C 313.320 194.121,312.309 193.757,311.953 193.581 C 310.693 192.955,301.144 193.369,299.200 194.133 C 298.210 194.522,297.180 194.886,296.911 194.942 C 296.642 194.998,295.681 195.529,294.775 196.122 C 293.869 196.715,292.949 197.200,292.730 197.200 C 292.136 197.200,288.000 201.620,288.000 202.254 C 288.000 202.554,287.820 202.800,287.600 202.800 C 287.380 202.800,287.200 202.440,287.200 202.000 C 287.200 201.560,287.032 201.200,286.827 201.200 C 286.622 201.200,286.339 200.838,286.199 200.395 C 285.604 198.522,281.423 195.327,278.400 194.437 C 277.410 194.145,276.113 193.760,275.517 193.580 C 274.059 193.140,266.101 193.219,264.600 193.688 M355.000 193.696 C 354.340 193.917,353.309 194.353,352.710 194.666 C 352.110 194.978,351.570 195.200,351.510 195.158 C 351.222 194.961,349.600 195.699,349.600 196.027 C 349.600 196.232,349.358 196.400,349.062 196.400 C 348.766 196.400,348.198 196.760,347.800 197.200 C 347.402 197.640,346.916 198.000,346.721 198.000 C 346.144 198.000,342.000 202.281,342.000 202.877 C 342.000 203.177,341.640 203.683,341.200 204.000 C 340.760 204.317,340.400 204.897,340.400 205.288 C 340.400 205.680,340.220 206.000,340.000 206.000 C 339.780 206.000,339.600 206.360,339.600 206.800 C 339.600 207.240,339.420 207.600,339.200 207.600 C 338.980 207.600,338.800 207.960,338.800 208.400 C 338.800 208.840,338.620 209.200,338.400 209.200 C 338.180 209.200,338.000 209.740,338.000 210.400 C 338.000 211.060,337.839 211.600,337.642 211.600 C 337.006 211.600,336.713 214.817,336.540 223.700 C 336.426 229.550,336.506 232.400,336.785 232.400 C 337.013 232.400,337.200 233.019,337.200 233.776 C 337.200 234.533,337.380 235.264,337.600 235.400 C 337.820 235.536,338.000 235.997,338.000 236.424 C 338.000 236.851,338.180 237.200,338.400 237.200 C 338.620 237.200,338.800 237.453,338.800 237.762 C 338.800 238.519,340.465 241.600,340.874 241.600 C 341.053 241.600,341.200 241.835,341.200 242.122 C 341.200 242.409,341.830 243.331,342.600 244.172 C 343.370 245.013,344.000 245.858,344.000 246.050 C 344.000 246.243,344.227 246.400,344.504 246.400 C 344.781 246.400,345.232 246.760,345.507 247.200 C 345.782 247.640,346.236 248.000,346.515 248.000 C 346.795 248.000,347.283 248.360,347.600 248.800 C 347.917 249.240,348.401 249.600,348.676 249.600 C 348.951 249.600,349.817 249.960,350.600 250.400 C 351.383 250.840,352.289 251.200,352.612 251.200 C 352.935 251.200,353.200 251.380,353.200 251.600 C 353.200 251.820,353.819 252.000,354.576 252.000 C 355.333 252.000,356.053 252.162,356.176 252.361 C 356.496 252.880,367.072 252.930,367.391 252.415 C 367.532 252.187,368.156 252.000,368.778 252.000 C 369.400 252.000,370.411 251.739,371.026 251.420 C 371.640 251.102,372.291 250.932,372.471 251.044 C 372.652 251.156,372.800 251.057,372.800 250.824 C 372.800 250.591,373.160 250.400,373.600 250.400 C 374.040 250.400,374.400 250.220,374.400 250.000 C 374.400 249.780,374.636 249.600,374.925 249.600 C 375.213 249.600,375.808 249.285,376.246 248.900 C 376.685 248.515,377.394 247.992,377.822 247.737 C 378.250 247.483,378.555 247.078,378.500 246.837 C 378.445 246.597,378.625 246.445,378.900 246.500 C 379.175 246.555,379.355 246.375,379.300 246.100 C 379.245 245.825,379.397 245.645,379.637 245.700 C 379.878 245.755,380.283 245.450,380.537 245.022 C 380.792 244.594,381.315 243.885,381.700 243.446 C 382.807 242.186,382.230 240.400,380.717 240.400 C 380.420 240.400,379.917 240.040,379.600 239.600 C 378.572 238.174,375.600 239.015,375.600 240.731 C 375.600 240.989,375.352 241.200,375.049 241.200 C 374.746 241.200,374.279 241.464,374.011 241.787 C 371.637 244.647,360.225 246.984,356.952 245.280 C 356.539 245.065,355.513 244.554,354.673 244.144 C 353.833 243.735,352.806 243.085,352.390 242.700 C 351.974 242.315,351.345 242.000,350.993 242.000 C 350.641 242.000,350.443 241.855,350.552 241.677 C 350.662 241.499,350.313 241.024,349.776 240.621 C 349.239 240.218,348.800 239.709,348.800 239.491 C 348.800 239.273,348.485 238.801,348.100 238.443 C 347.199 237.604,346.400 236.177,346.400 235.405 C 346.400 235.072,346.220 234.800,346.000 234.800 C 345.780 234.800,345.600 234.440,345.600 234.000 C 345.600 233.560,345.420 233.200,345.200 233.200 C 344.980 233.200,344.800 232.649,344.800 231.976 C 344.800 231.263,344.633 230.856,344.400 231.000 C 344.148 231.156,344.000 230.204,344.000 228.424 C 344.000 226.808,343.829 225.600,343.600 225.600 C 343.380 225.600,343.200 225.240,343.200 224.800 C 343.200 224.011,343.468 224.000,362.700 223.995 C 373.425 223.992,382.605 223.881,383.100 223.748 C 384.066 223.489,384.545 217.600,383.600 217.600 C 383.369 217.600,383.200 216.341,383.200 214.624 C 383.200 212.987,383.020 211.536,382.800 211.400 C 382.580 211.264,382.400 210.533,382.400 209.776 C 382.400 209.019,382.220 208.400,382.000 208.400 C 381.780 208.400,381.600 208.065,381.600 207.656 C 381.600 206.744,379.195 202.000,378.733 202.000 C 378.550 202.000,378.400 201.770,378.400 201.488 C 378.400 201.207,378.040 200.717,377.600 200.400 C 377.160 200.083,376.790 199.638,376.778 199.412 C 376.766 199.185,376.187 198.550,375.493 198.000 C 374.798 197.450,374.381 197.270,374.566 197.600 C 374.750 197.930,374.429 197.714,373.853 197.120 C 372.743 195.976,371.451 195.296,368.200 194.146 C 365.890 193.329,357.003 193.026,355.000 193.696 M223.384 194.500 C 223.279 194.775,223.240 207.780,223.296 223.400 L 223.400 251.800 225.783 251.922 C 227.094 251.990,228.579 251.941,229.083 251.815 L 230.000 251.585 230.000 222.792 L 230.000 194.000 226.787 194.000 C 224.586 194.000,223.515 194.157,223.384 194.500 M365.717 200.900 C 366.309 201.175,366.795 201.535,366.797 201.700 C 366.799 201.865,367.160 202.000,367.600 202.000 C 368.040 202.000,368.400 202.180,368.400 202.400 C 368.400 202.620,368.571 202.755,368.779 202.700 C 369.272 202.570,373.200 206.830,373.200 207.493 C 373.200 207.772,373.380 208.000,373.600 208.000 C 373.820 208.000,374.000 208.360,374.000 208.800 C 374.000 209.240,374.180 209.600,374.400 209.600 C 374.620 209.600,374.800 210.104,374.800 210.720 C 374.800 211.336,374.958 212.011,375.150 212.220 C 375.343 212.429,375.596 213.725,375.712 215.100 L 375.924 217.600 359.962 217.600 L 344.000 217.600 344.000 216.400 C 344.000 215.740,344.180 215.200,344.400 215.200 C 344.620 215.200,344.800 214.658,344.800 213.995 C 344.800 213.332,344.959 212.477,345.153 212.095 C 345.348 211.713,345.751 210.860,346.051 210.200 C 346.350 209.540,346.911 208.709,347.297 208.353 C 347.684 207.997,348.000 207.546,348.000 207.351 C 348.000 206.487,352.331 202.511,354.206 201.654 C 354.863 201.353,355.670 200.959,356.000 200.777 C 356.969 200.244,364.510 200.339,365.717 200.900 " stroke="none" fill="#999999" fill-rule="evenodd"></path><path id="path3" d="M289.384 232.400 C 289.384 242.410,289.436 246.505,289.500 241.500 C 289.563 236.495,289.563 228.305,289.500 223.300 C 289.436 218.295,289.384 222.390,289.384 232.400 " stroke="none" fill="#bfbfbf" fill-rule="evenodd"></path><path id="path4" d="" stroke="none" fill="#ffffff" fill-rule="evenodd"></path><path id="path5" d="" stroke="none" fill="#0000ff" fill-rule="evenodd"></path><path id="path6" d="" stroke="none" fill="#5555aa" fill-rule="evenodd"></path><path id="path7" d="" stroke="none" fill="#008080" fill-rule="evenodd"></path><path id="path8" d="M196.400 162.199 L 196.400 172.397 136.100 172.499 L 75.800 172.600 75.690 178.700 L 75.579 184.800 135.990 184.800 L 196.400 184.800 196.405 247.900 C 196.408 282.605,196.519 311.405,196.652 311.900 C 196.968 313.079,205.313 313.324,205.757 312.167 C 205.891 311.819,206.000 283.019,206.000 248.167 L 206.000 184.800 212.357 184.800 C 217.785 184.800,218.750 184.708,218.957 184.167 C 219.396 183.025,219.234 173.200,218.776 173.200 C 218.543 173.200,218.464 173.020,218.600 172.800 C 218.761 172.540,216.604 172.400,212.424 172.400 L 206.000 172.400 206.000 162.833 C 206.000 150.870,206.526 152.000,200.957 152.000 L 196.400 152.000 196.400 162.199 " stroke="none" fill="#6d6e71" fill-rule="evenodd"></path><path id="path9" d="" stroke="none" fill="#408080" fill-rule="evenodd"></path><path id="path10" d="" stroke="none" fill="#249292" fill-rule="evenodd"></path><path id="path11" d="" stroke="none" fill="#aa55aa" fill-rule="evenodd"></path><path id="path12" d="M387.200 207.424 C 387.200 208.804,387.048 209.553,386.800 209.400 C 386.540 209.239,386.400 211.455,386.400 215.753 C 386.400 219.721,386.241 222.451,386.000 222.600 C 385.780 222.736,385.600 224.287,385.600 226.047 C 385.600 227.807,385.448 229.153,385.263 229.039 C 385.077 228.924,384.887 230.038,384.840 231.515 C 384.793 232.992,384.584 234.371,384.377 234.580 C 384.170 234.789,384.000 235.813,384.000 236.856 C 384.000 237.899,383.820 238.864,383.600 239.000 C 383.380 239.136,383.200 240.047,383.200 241.024 C 383.200 242.001,383.020 242.800,382.800 242.800 C 382.580 242.800,382.400 243.520,382.400 244.400 C 382.400 245.280,382.220 246.000,382.000 246.000 C 381.780 246.000,381.600 246.720,381.600 247.600 C 381.600 248.480,381.420 249.200,381.200 249.200 C 380.980 249.200,380.800 249.830,380.800 250.600 C 380.800 251.370,380.640 252.000,380.444 252.000 C 380.248 252.000,379.991 252.585,379.872 253.300 C 379.517 255.448,379.159 256.955,378.803 257.800 C 378.618 258.240,378.233 259.455,377.946 260.500 C 377.660 261.545,377.324 262.400,377.200 262.400 C 377.076 262.400,376.935 262.877,376.887 263.460 C 376.839 264.042,376.529 265.060,376.200 265.721 C 375.870 266.382,375.600 267.168,375.600 267.467 C 375.600 267.973,374.855 269.545,374.400 270.000 C 374.290 270.110,374.138 270.650,374.062 271.200 C 373.986 271.750,373.761 272.260,373.562 272.333 C 373.363 272.407,373.200 272.724,373.200 273.039 C 373.200 273.353,373.043 273.923,372.850 274.305 C 371.342 277.299,370.800 278.556,370.800 279.061 C 370.800 279.384,370.620 279.536,370.400 279.400 C 370.180 279.264,370.000 279.425,370.000 279.758 C 370.000 280.647,367.563 285.600,367.126 285.600 C 366.921 285.600,366.855 285.765,366.980 285.968 C 367.105 286.170,366.936 286.607,366.604 286.939 C 366.272 287.271,366.000 287.826,366.000 288.171 C 366.000 288.517,365.820 288.800,365.600 288.800 C 365.380 288.800,365.200 289.126,365.200 289.525 C 365.200 289.923,364.883 290.598,364.496 291.025 C 364.109 291.451,363.344 292.699,362.796 293.797 C 362.248 294.895,361.599 295.975,361.353 296.197 C 361.107 296.419,360.658 297.185,360.355 297.900 C 360.052 298.615,359.669 299.200,359.502 299.200 C 359.336 299.200,359.200 299.470,359.200 299.800 C 359.200 300.130,359.050 300.400,358.868 300.400 C 358.685 300.400,358.281 300.895,357.970 301.500 C 357.660 302.105,357.089 302.891,356.703 303.247 C 356.316 303.603,356.000 304.148,356.000 304.459 C 356.000 304.769,355.640 305.283,355.200 305.600 C 354.760 305.917,354.400 306.497,354.400 306.888 C 354.400 307.280,354.250 307.600,354.068 307.600 C 353.885 307.600,353.498 308.044,353.207 308.586 C 352.917 309.129,352.499 309.461,352.278 309.325 C 352.057 309.188,351.985 309.251,352.117 309.465 C 352.249 309.679,351.957 310.292,351.467 310.827 C 350.978 311.362,350.155 312.399,349.639 313.131 C 349.123 313.864,348.318 314.869,347.850 315.366 C 347.383 315.863,346.460 316.955,345.800 317.792 C 345.140 318.630,344.015 319.916,343.300 320.651 C 342.585 321.385,342.000 322.183,342.000 322.424 C 342.000 322.665,341.235 323.580,340.300 324.456 C 339.365 325.332,336.597 328.018,334.148 330.424 C 331.699 332.831,329.484 334.800,329.224 334.800 C 328.965 334.800,328.864 334.980,329.000 335.200 C 329.136 335.420,329.066 335.600,328.844 335.600 C 328.622 335.600,327.253 336.776,325.802 338.212 C 324.310 339.690,322.971 340.706,322.720 340.551 C 322.452 340.385,322.389 340.459,322.562 340.738 C 322.719 340.992,322.689 341.200,322.496 341.200 C 322.302 341.200,321.437 341.806,320.572 342.546 C 319.707 343.286,318.866 343.871,318.701 343.846 C 318.537 343.821,317.833 344.338,317.136 344.996 C 316.439 345.654,315.572 346.374,315.210 346.596 C 312.583 348.207,311.600 348.927,311.600 349.240 C 311.600 349.438,311.330 349.600,311.000 349.600 C 310.670 349.600,310.400 349.780,310.400 350.000 C 310.400 350.220,310.130 350.400,309.800 350.400 C 309.470 350.400,309.200 350.580,309.200 350.800 C 309.200 351.020,308.964 351.200,308.675 351.200 C 308.387 351.200,307.802 351.515,307.375 351.900 C 306.949 352.285,306.105 352.855,305.500 353.168 C 304.895 353.480,304.400 353.885,304.400 354.068 C 304.400 354.250,304.122 354.400,303.783 354.400 C 303.444 354.400,302.780 354.760,302.308 355.200 C 301.836 355.640,301.213 356.000,300.925 356.000 C 300.636 356.000,300.400 356.180,300.400 356.400 C 300.400 356.620,300.040 356.800,299.600 356.800 C 299.160 356.800,298.800 356.980,298.800 357.200 C 298.800 357.420,298.429 357.600,297.976 357.600 C 297.523 357.600,297.245 357.750,297.358 357.932 C 297.471 358.115,296.942 358.509,296.182 358.807 C 295.422 359.105,294.800 359.506,294.800 359.698 C 294.800 359.890,294.652 359.956,294.472 359.844 C 294.291 359.733,293.567 359.992,292.862 360.421 C 292.157 360.849,291.315 361.200,290.990 361.200 C 290.666 361.200,290.400 361.380,290.400 361.600 C 290.400 361.820,290.040 362.000,289.600 362.000 C 289.160 362.000,288.800 362.180,288.800 362.400 C 288.800 362.620,288.440 362.800,288.000 362.800 C 287.560 362.800,287.200 362.980,287.200 363.200 C 287.200 363.420,286.840 363.600,286.400 363.600 C 285.960 363.600,285.600 363.760,285.600 363.957 C 285.600 364.153,285.134 364.430,284.565 364.573 C 282.953 364.978,280.400 366.155,280.400 366.494 C 280.400 366.662,279.950 366.800,279.400 366.800 C 278.850 366.800,278.400 366.980,278.400 367.200 C 278.400 367.420,277.950 367.600,277.400 367.600 C 276.850 367.600,276.400 367.780,276.400 368.000 C 276.400 368.220,275.961 368.400,275.424 368.400 C 274.887 368.400,274.336 368.580,274.200 368.800 C 274.064 369.020,273.603 369.200,273.176 369.200 C 272.749 369.200,272.400 369.380,272.400 369.600 C 272.400 369.820,272.076 370.000,271.680 370.000 C 271.284 370.000,270.786 370.174,270.573 370.387 C 270.361 370.599,269.605 370.817,268.893 370.872 C 268.182 370.926,267.600 371.112,267.600 371.285 C 267.600 371.458,267.060 371.600,266.400 371.600 C 265.740 371.600,265.200 371.780,265.200 372.000 C 265.200 372.220,264.660 372.400,264.000 372.400 C 263.340 372.400,262.800 372.580,262.800 372.800 C 262.800 373.020,262.361 373.200,261.824 373.200 C 261.287 373.200,260.736 373.380,260.600 373.600 C 260.464 373.820,259.834 374.000,259.200 374.000 C 258.566 374.000,257.936 374.180,257.800 374.400 C 257.664 374.620,256.854 374.800,256.000 374.800 C 255.146 374.800,254.336 374.980,254.200 375.200 C 254.064 375.420,253.333 375.600,252.576 375.600 C 251.819 375.600,251.200 375.768,251.200 375.973 C 251.200 376.178,250.705 376.289,250.100 376.220 C 249.495 376.151,248.820 376.237,248.600 376.410 C 248.118 376.789,246.292 377.119,242.800 377.458 C 241.370 377.596,240.020 377.849,239.800 378.020 C 239.580 378.191,238.410 378.375,237.200 378.429 C 235.990 378.484,234.820 378.660,234.600 378.822 C 234.033 379.238,227.830 379.657,219.213 379.861 C 214.051 379.983,211.733 380.181,211.519 380.518 C 210.889 381.508,211.149 387.495,211.833 387.757 C 212.810 388.132,221.129 388.040,223.656 387.626 C 224.896 387.423,227.641 387.210,229.756 387.154 C 231.870 387.098,233.600 386.905,233.600 386.726 C 233.600 386.547,234.939 386.400,236.576 386.400 C 238.213 386.400,239.664 386.220,239.800 386.000 C 239.936 385.780,241.016 385.600,242.200 385.600 C 243.384 385.600,244.464 385.420,244.600 385.200 C 244.736 384.980,245.722 384.800,246.790 384.800 C 247.859 384.800,248.793 384.629,248.867 384.420 C 248.940 384.211,249.765 383.996,250.700 383.942 C 251.635 383.888,252.400 383.718,252.400 383.564 C 252.400 383.410,253.075 383.182,253.900 383.057 C 257.409 382.527,258.420 382.292,258.627 381.956 C 258.748 381.760,259.456 381.600,260.200 381.600 C 260.944 381.600,261.664 381.420,261.800 381.200 C 261.936 380.980,262.577 380.800,263.224 380.800 C 263.871 380.800,264.400 380.620,264.400 380.400 C 264.400 380.180,264.805 379.997,265.300 379.994 C 266.276 379.987,269.015 379.118,269.459 378.674 C 269.610 378.523,270.143 378.400,270.643 378.400 C 271.143 378.400,271.642 378.256,271.751 378.079 C 271.860 377.903,272.861 377.510,273.975 377.207 C 275.089 376.904,276.000 376.508,276.000 376.328 C 276.000 376.147,276.540 376.000,277.200 376.000 C 277.860 376.000,278.400 375.820,278.400 375.600 C 278.400 375.380,278.749 375.200,279.176 375.200 C 279.603 375.200,280.064 375.020,280.200 374.800 C 280.336 374.580,280.774 374.400,281.174 374.400 C 281.828 374.400,287.158 372.188,288.895 371.197 C 289.277 370.979,289.862 370.800,290.195 370.800 C 290.528 370.800,290.800 370.620,290.800 370.400 C 290.800 370.180,291.160 370.000,291.600 370.000 C 292.040 370.000,292.400 369.820,292.400 369.600 C 292.400 369.380,292.760 369.200,293.200 369.200 C 293.640 369.200,294.000 369.020,294.000 368.800 C 294.000 368.580,294.360 368.400,294.800 368.400 C 295.240 368.400,295.600 368.220,295.600 368.000 C 295.600 367.780,295.878 367.600,296.217 367.600 C 296.556 367.600,297.191 367.267,297.627 366.861 C 298.064 366.454,299.133 365.886,300.005 365.598 C 300.876 365.311,301.889 364.744,302.256 364.338 C 302.623 363.932,303.174 363.600,303.479 363.600 C 303.784 363.600,304.420 363.240,304.892 362.800 C 305.364 362.360,305.987 362.000,306.275 362.000 C 306.564 362.000,306.800 361.820,306.800 361.600 C 306.800 361.380,306.993 361.200,307.229 361.200 C 307.464 361.200,307.929 360.928,308.261 360.596 C 308.593 360.264,309.058 360.112,309.294 360.258 C 309.549 360.415,309.607 360.336,309.438 360.062 C 309.269 359.788,309.407 359.600,309.776 359.600 C 310.119 359.600,310.400 359.420,310.400 359.200 C 310.400 358.980,310.760 358.800,311.200 358.800 C 311.640 358.800,312.000 358.641,312.000 358.446 C 312.000 358.251,312.585 357.813,313.300 357.472 C 314.015 357.131,314.960 356.526,315.400 356.126 C 315.840 355.727,316.695 355.145,317.300 354.832 C 317.905 354.520,318.400 354.115,318.400 353.932 C 318.400 353.750,318.655 353.600,318.966 353.600 C 319.277 353.600,320.042 353.060,320.665 352.400 C 321.288 351.740,322.023 351.200,322.299 351.200 C 322.574 351.200,322.800 351.059,322.800 350.886 C 322.800 350.714,323.295 350.280,323.900 349.922 C 324.506 349.565,326.040 348.266,327.310 347.036 C 328.579 345.806,329.776 344.800,329.969 344.800 C 330.161 344.800,331.238 343.900,332.361 342.800 C 333.485 341.700,334.545 340.800,334.718 340.800 C 335.256 340.800,347.200 328.756,347.200 328.215 C 347.200 328.107,348.204 326.980,349.431 325.709 C 350.658 324.439,352.143 322.770,352.731 322.000 C 353.319 321.230,354.115 320.365,354.500 320.077 C 354.885 319.790,355.200 319.303,355.200 318.996 C 355.200 318.688,355.650 317.986,356.200 317.436 C 356.750 316.886,357.200 316.270,357.200 316.066 C 357.200 315.863,357.920 314.955,358.800 314.048 C 359.680 313.141,360.400 312.169,360.400 311.888 C 360.400 311.607,360.760 311.117,361.200 310.800 C 361.640 310.483,362.000 309.943,362.000 309.600 C 362.000 309.257,362.360 308.717,362.800 308.400 C 363.240 308.083,363.600 307.546,363.600 307.208 C 363.600 306.869,363.960 306.368,364.400 306.093 C 364.840 305.818,365.200 305.402,365.200 305.169 C 365.200 304.935,365.783 303.902,366.495 302.872 C 367.207 301.842,367.747 300.865,367.695 300.700 C 367.643 300.535,367.768 300.400,367.973 300.400 C 368.178 300.400,368.460 300.041,368.599 299.602 C 368.738 299.164,369.066 298.572,369.326 298.287 C 370.254 297.272,374.400 289.242,374.400 288.458 C 374.400 288.206,374.580 288.000,374.800 288.000 C 375.020 288.000,375.200 287.640,375.200 287.200 C 375.200 286.760,375.380 286.400,375.600 286.400 C 375.820 286.400,376.000 286.040,376.000 285.600 C 376.000 285.160,376.180 284.800,376.400 284.800 C 376.620 284.800,376.800 284.440,376.800 284.000 C 376.800 283.560,376.980 283.200,377.200 283.200 C 377.420 283.200,377.600 282.840,377.600 282.400 C 377.600 281.960,377.780 281.600,378.000 281.600 C 378.220 281.600,378.400 281.364,378.400 281.075 C 378.400 280.786,378.760 279.805,379.200 278.894 C 379.640 277.984,380.000 276.960,380.000 276.619 C 380.000 276.279,380.180 276.000,380.400 276.000 C 380.620 276.000,380.800 275.640,380.800 275.200 C 380.800 274.760,380.980 274.400,381.200 274.400 C 381.420 274.400,381.600 273.860,381.600 273.200 C 381.600 272.540,381.780 272.000,382.000 272.000 C 382.220 272.000,382.400 271.640,382.400 271.200 C 382.400 270.760,382.610 270.400,382.867 270.400 C 383.123 270.400,383.220 270.287,383.083 270.149 C 382.945 270.011,383.095 269.269,383.416 268.500 C 383.737 267.731,384.000 266.754,384.000 266.328 C 384.000 265.901,384.180 265.664,384.400 265.800 C 384.633 265.944,384.800 265.537,384.800 264.824 C 384.800 264.151,384.980 263.600,385.200 263.600 C 385.420 263.600,385.600 263.060,385.600 262.400 C 385.600 261.740,385.741 261.200,385.913 261.200 C 386.085 261.200,386.266 260.713,386.315 260.118 C 386.364 259.522,386.584 258.856,386.802 258.638 C 387.021 258.419,387.200 257.646,387.200 256.920 C 387.200 256.194,387.343 255.600,387.517 255.600 C 387.692 255.600,388.068 254.475,388.353 253.100 C 388.638 251.725,388.972 250.330,389.096 250.000 C 389.219 249.670,389.354 249.025,389.395 248.568 C 389.436 248.110,389.586 247.546,389.729 247.314 C 389.872 247.083,390.096 246.197,390.225 245.347 C 390.355 244.496,390.613 243.103,390.799 242.251 C 390.985 241.399,391.049 240.472,390.941 240.191 C 390.834 239.911,390.938 239.562,391.173 239.417 C 391.408 239.272,391.600 238.173,391.600 236.976 C 391.600 235.779,391.780 234.800,392.000 234.800 C 392.228 234.800,392.400 233.608,392.400 232.024 C 392.400 230.497,392.580 229.136,392.800 229.000 C 393.021 228.863,393.200 227.055,393.200 224.953 C 393.200 222.521,393.344 221.242,393.600 221.400 C 393.862 221.562,394.000 218.804,394.000 213.424 L 394.000 205.200 390.600 205.200 L 387.200 205.200 387.200 207.424 " stroke="none" fill="#13a89e" fill-rule="evenodd"></path><path id="path13" d="M191.100 358.282 C 191.595 358.378,192.405 358.378,192.900 358.282 C 193.395 358.187,192.990 358.109,192.000 358.109 C 191.010 358.109,190.605 358.187,191.100 358.282 M215.900 358.282 C 216.395 358.378,217.205 358.378,217.700 358.282 C 218.195 358.187,217.790 358.109,216.800 358.109 C 215.810 358.109,215.405 358.187,215.900 358.282 " stroke="none" fill="#ff0000" fill-rule="evenodd"></path><path id="path14" d="" stroke="none" fill="#55aaaa" fill-rule="evenodd"></path><path id="path15" d="" stroke="none" fill="#d47f2a" fill-rule="evenodd"></path><path id="path16" d="M180.000 30.391 C 179.670 30.609,177.386 30.791,174.924 30.794 C 172.378 30.797,170.341 30.973,170.200 31.200 C 170.064 31.420,168.739 31.600,167.256 31.600 C 165.773 31.600,164.389 31.763,164.180 31.963 C 163.971 32.163,162.900 32.428,161.800 32.552 C 156.936 33.102,155.777 33.300,155.420 33.639 C 155.211 33.837,154.457 34.000,153.744 34.000 C 153.031 34.000,152.336 34.180,152.200 34.400 C 152.064 34.620,151.344 34.800,150.600 34.800 C 149.856 34.800,149.136 34.980,149.000 35.200 C 148.864 35.420,148.234 35.600,147.600 35.600 C 146.966 35.600,146.336 35.780,146.200 36.000 C 146.064 36.220,145.423 36.400,144.776 36.400 C 144.129 36.400,143.600 36.580,143.600 36.800 C 143.600 37.020,143.060 37.200,142.400 37.200 C 141.740 37.200,141.200 37.380,141.200 37.600 C 141.200 37.820,140.660 38.000,140.000 38.000 C 139.340 38.000,138.800 38.180,138.800 38.400 C 138.800 38.620,138.260 38.800,137.600 38.800 C 136.940 38.800,136.400 38.980,136.400 39.200 C 136.400 39.420,135.860 39.600,135.200 39.600 C 134.540 39.600,134.000 39.780,134.000 40.000 C 134.000 40.220,133.651 40.400,133.224 40.400 C 132.797 40.400,132.336 40.580,132.200 40.800 C 132.064 41.020,131.513 41.200,130.976 41.200 C 130.439 41.200,130.000 41.380,130.000 41.600 C 130.000 41.820,129.657 42.000,129.238 42.000 C 128.819 42.000,127.784 42.347,126.938 42.770 C 124.059 44.212,122.678 44.800,122.172 44.800 C 121.894 44.800,121.607 44.937,121.533 45.105 C 121.460 45.273,119.420 46.393,117.000 47.594 C 114.580 48.796,112.510 49.873,112.400 49.989 C 112.030 50.379,109.806 51.647,109.100 51.871 C 108.715 51.993,108.400 52.230,108.400 52.398 C 108.400 52.566,107.860 52.927,107.200 53.200 C 106.540 53.473,106.000 53.855,106.000 54.049 C 106.000 54.242,105.680 54.400,105.288 54.400 C 104.897 54.400,104.317 54.760,104.000 55.200 C 103.683 55.640,103.227 56.000,102.987 56.000 C 102.747 56.000,102.202 56.315,101.775 56.700 C 101.349 57.085,100.505 57.655,99.900 57.968 C 99.295 58.280,98.800 58.685,98.800 58.868 C 98.800 59.050,98.620 59.200,98.401 59.200 C 97.960 59.200,93.570 62.473,92.087 63.908 C 91.570 64.407,90.671 65.127,90.088 65.508 C 88.082 66.817,74.000 80.364,74.000 80.985 C 74.000 81.138,73.319 81.924,72.487 82.731 C 71.655 83.539,70.539 84.830,70.006 85.600 C 69.474 86.370,68.751 87.270,68.400 87.600 C 68.049 87.930,67.329 88.830,66.800 89.600 C 66.271 90.370,65.547 91.270,65.191 91.600 C 64.036 92.670,59.817 99.092,59.342 100.500 C 59.213 100.885,58.970 101.200,58.802 101.200 C 58.634 101.200,58.273 101.740,58.000 102.400 C 57.727 103.060,57.345 103.600,57.151 103.600 C 56.958 103.600,56.800 103.960,56.800 104.400 C 56.800 104.840,56.620 105.200,56.400 105.200 C 56.180 105.200,56.000 105.470,56.000 105.800 C 56.000 106.130,55.820 106.400,55.600 106.400 C 55.380 106.400,55.200 106.670,55.200 107.000 C 55.200 107.330,55.020 107.600,54.800 107.600 C 54.580 107.600,54.400 107.960,54.400 108.400 C 54.400 108.840,54.220 109.200,54.000 109.200 C 53.780 109.200,53.600 109.560,53.600 110.000 C 53.600 110.440,53.465 110.801,53.300 110.803 C 53.135 110.805,52.799 111.210,52.554 111.703 C 52.309 112.196,51.561 113.680,50.893 115.000 C 48.649 119.428,46.400 124.318,46.400 124.766 C 46.400 125.011,46.235 125.523,46.034 125.905 C 44.635 128.556,42.800 133.975,42.800 135.452 C 42.800 135.973,42.620 136.400,42.400 136.400 C 42.180 136.400,42.000 136.940,42.000 137.600 C 42.000 138.260,41.820 138.800,41.600 138.800 C 41.380 138.800,41.200 139.340,41.200 140.000 C 41.200 140.660,41.020 141.200,40.800 141.200 C 40.580 141.200,40.400 141.920,40.400 142.800 C 40.400 143.680,40.220 144.400,40.000 144.400 C 39.780 144.400,39.600 145.019,39.600 145.776 C 39.600 146.533,39.420 147.264,39.200 147.400 C 38.980 147.536,38.800 148.447,38.800 149.424 C 38.800 150.401,38.620 151.200,38.400 151.200 C 38.180 151.200,38.000 152.100,38.000 153.200 C 38.000 154.300,37.820 155.200,37.600 155.200 C 37.378 155.200,37.200 156.267,37.200 157.600 C 37.200 158.933,37.022 160.000,36.800 160.000 C 36.571 160.000,36.400 161.200,36.400 162.800 C 36.400 164.340,36.258 165.600,36.085 165.600 C 35.570 165.600,35.605 167.230,36.123 167.389 C 36.385 167.470,37.725 167.623,39.100 167.730 L 41.600 167.924 41.600 166.762 C 41.600 166.123,41.780 165.600,42.000 165.600 C 42.225 165.600,42.400 164.475,42.400 163.024 C 42.400 161.607,42.580 160.336,42.800 160.200 C 43.020 160.064,43.200 158.973,43.200 157.776 C 43.200 156.579,43.380 155.600,43.600 155.600 C 43.820 155.600,44.000 154.790,44.000 153.800 C 44.000 152.810,44.180 152.000,44.400 152.000 C 44.620 152.000,44.800 151.291,44.800 150.424 C 44.800 149.557,44.980 148.736,45.200 148.600 C 45.420 148.464,45.600 147.744,45.600 147.000 C 45.600 146.256,45.780 145.536,46.000 145.400 C 46.220 145.264,46.400 144.533,46.400 143.776 C 46.400 143.019,46.580 142.400,46.800 142.400 C 47.020 142.400,47.200 141.871,47.200 141.224 C 47.200 140.577,47.380 139.936,47.600 139.800 C 47.820 139.664,48.000 139.113,48.000 138.576 C 48.000 138.039,48.180 137.600,48.400 137.600 C 48.620 137.600,48.800 137.161,48.800 136.624 C 48.800 136.087,48.980 135.536,49.200 135.400 C 49.420 135.264,49.600 134.724,49.600 134.200 C 49.600 133.676,49.780 133.136,50.000 133.000 C 50.220 132.864,50.400 132.313,50.400 131.776 C 50.400 131.239,50.541 130.800,50.713 130.800 C 50.885 130.800,51.278 129.945,51.586 128.900 C 52.076 127.241,52.669 125.847,54.050 123.105 C 54.243 122.723,54.400 122.138,54.400 121.805 C 54.400 121.472,54.536 121.200,54.702 121.200 C 54.869 121.200,55.251 120.615,55.552 119.900 C 55.853 119.185,56.347 118.077,56.650 117.439 C 56.952 116.800,57.200 116.035,57.200 115.739 C 57.200 115.442,57.380 115.200,57.600 115.200 C 57.820 115.200,58.000 114.922,58.000 114.583 C 58.000 114.244,58.360 113.580,58.800 113.108 C 59.240 112.636,59.600 112.013,59.600 111.725 C 59.600 111.436,59.780 111.200,60.000 111.200 C 60.220 111.200,60.400 110.840,60.400 110.400 C 60.400 109.960,60.580 109.600,60.800 109.600 C 61.020 109.600,61.200 109.240,61.200 108.800 C 61.200 108.360,61.350 108.000,61.532 108.000 C 61.715 108.000,62.120 107.505,62.432 106.900 C 62.745 106.295,63.286 105.482,63.636 105.093 C 63.986 104.705,64.526 103.895,64.836 103.293 C 65.146 102.692,65.619 101.968,65.886 101.685 C 66.153 101.402,66.687 100.637,67.072 99.985 C 67.457 99.333,67.914 98.800,68.086 98.800 C 68.259 98.800,68.400 98.592,68.400 98.337 C 68.400 97.900,70.556 94.874,72.788 92.178 C 73.345 91.506,74.246 90.363,74.790 89.638 C 76.916 86.810,88.816 74.400,89.402 74.400 C 89.526 74.400,90.236 73.815,90.980 73.100 C 92.254 71.876,92.977 71.267,96.400 68.532 C 97.170 67.916,97.890 67.311,98.000 67.187 C 98.110 67.063,98.830 66.525,99.600 65.992 C 100.370 65.458,101.318 64.731,101.707 64.375 C 102.095 64.019,102.905 63.475,103.507 63.167 C 104.108 62.858,104.891 62.289,105.247 61.903 C 105.603 61.516,106.122 61.200,106.400 61.200 C 106.678 61.200,107.197 60.884,107.553 60.497 C 107.909 60.111,108.695 59.540,109.300 59.230 C 109.905 58.919,110.400 58.515,110.400 58.332 C 110.400 58.150,110.745 58.000,111.167 58.000 C 111.588 58.000,111.993 57.845,112.067 57.656 C 112.184 57.353,114.554 56.020,120.800 52.744 C 121.790 52.225,122.660 51.665,122.733 51.500 C 122.807 51.335,123.212 51.200,123.633 51.200 C 124.055 51.200,124.400 51.020,124.400 50.800 C 124.400 50.580,124.850 50.400,125.400 50.400 C 125.950 50.400,126.400 50.220,126.400 50.000 C 126.400 49.780,126.749 49.600,127.176 49.600 C 127.603 49.600,128.064 49.420,128.200 49.200 C 128.336 48.980,128.797 48.800,129.224 48.800 C 129.651 48.800,130.000 48.620,130.000 48.400 C 130.000 48.180,130.360 48.000,130.800 48.000 C 131.240 48.000,131.600 47.820,131.600 47.600 C 131.600 47.380,132.050 47.200,132.600 47.200 C 133.150 47.200,133.600 47.020,133.600 46.800 C 133.600 46.580,133.949 46.400,134.376 46.400 C 134.803 46.400,135.264 46.220,135.400 46.000 C 135.536 45.780,136.087 45.600,136.624 45.600 C 137.161 45.600,137.600 45.420,137.600 45.200 C 137.600 44.980,138.140 44.800,138.800 44.800 C 139.460 44.800,140.000 44.620,140.000 44.400 C 140.000 44.180,140.540 44.000,141.200 44.000 C 141.860 44.000,142.400 43.820,142.400 43.600 C 142.400 43.380,142.940 43.200,143.600 43.200 C 144.260 43.200,144.800 43.020,144.800 42.800 C 144.800 42.580,145.340 42.400,146.000 42.400 C 146.660 42.400,147.200 42.220,147.200 42.000 C 147.200 41.780,147.920 41.600,148.800 41.600 C 149.680 41.600,150.400 41.444,150.400 41.253 C 150.400 41.062,151.075 40.801,151.900 40.673 C 152.725 40.546,155.110 40.075,157.200 39.626 C 159.290 39.177,161.664 38.808,162.476 38.805 C 163.288 38.802,164.064 38.620,164.200 38.400 C 164.336 38.180,165.571 38.000,166.944 38.000 C 168.317 38.000,169.611 37.830,169.820 37.622 C 170.029 37.413,171.865 37.210,173.900 37.169 C 175.935 37.128,177.600 36.939,177.600 36.747 C 177.600 36.556,182.100 36.400,187.600 36.400 C 194.259 36.400,197.600 36.539,197.600 36.816 C 197.600 37.080,198.788 37.190,200.838 37.116 L 204.077 37.000 204.632 35.400 C 205.978 31.525,205.507 31.073,199.716 30.679 C 191.553 30.124,180.644 29.964,180.000 30.391 " stroke="none" fill="#e36fab" fill-rule="evenodd"></path><path id="path17" d="" stroke="none" fill="#aaaa00" fill-rule="evenodd"></path><path id="path18" d="" stroke="none" fill="#00bfbf" fill-rule="evenodd"></path><path id="path19" d="" stroke="none" fill="#ff00ff" fill-rule="evenodd"></path><path id="path20" d="" stroke="none" fill="#ff55aa" fill-rule="evenodd"></path><path id="path21" d="M260.800 97.600 C 260.800 97.820,260.080 98.000,259.200 98.000 C 258.320 98.000,257.600 98.180,257.600 98.400 C 257.600 98.620,257.265 98.800,256.856 98.800 C 255.944 98.800,251.200 101.205,251.200 101.667 C 251.200 101.850,250.930 102.000,250.600 102.000 C 250.270 102.000,250.000 102.180,250.000 102.400 C 250.000 102.620,249.820 102.800,249.599 102.800 C 248.561 102.800,243.508 109.633,242.975 111.757 C 242.830 112.335,242.551 112.906,242.356 113.027 C 242.160 113.148,242.000 113.676,242.000 114.200 C 242.000 114.724,241.820 115.264,241.600 115.400 C 241.380 115.536,241.200 116.256,241.200 117.000 C 241.200 117.744,241.020 118.464,240.800 118.600 C 240.554 118.752,240.400 122.004,240.400 127.024 C 240.400 132.208,240.546 135.200,240.800 135.200 C 241.020 135.200,241.200 135.909,241.200 136.776 C 241.200 137.643,241.380 138.464,241.600 138.600 C 241.820 138.736,242.000 139.192,242.000 139.613 C 242.000 142.394,248.588 151.926,250.553 151.989 C 250.747 151.995,251.197 152.315,251.553 152.700 C 255.661 157.145,269.671 158.104,277.172 154.454 C 282.514 151.854,289.600 143.525,289.600 139.844 C 289.600 139.516,289.756 139.151,289.947 139.033 C 291.503 138.071,291.918 123.462,290.555 117.600 C 290.427 117.050,290.239 116.154,290.137 115.609 C 289.803 113.826,287.244 108.400,286.737 108.400 C 286.552 108.400,286.400 108.118,286.400 107.773 C 286.400 107.003,280.536 101.200,279.759 101.200 C 279.452 101.200,279.200 101.020,279.200 100.800 C 279.200 100.580,278.840 100.400,278.400 100.400 C 277.960 100.400,277.600 100.220,277.600 100.000 C 277.600 99.780,277.240 99.600,276.800 99.600 C 276.360 99.600,276.000 99.420,276.000 99.200 C 276.000 98.980,275.550 98.800,275.000 98.800 C 274.450 98.800,274.000 98.620,274.000 98.400 C 274.000 98.180,273.381 98.000,272.624 98.000 C 271.867 98.000,271.136 97.820,271.000 97.600 C 270.857 97.368,268.663 97.200,265.776 97.200 C 262.725 97.200,260.800 97.355,260.800 97.600 M270.681 104.849 C 274.923 106.553,276.472 107.684,279.112 111.000 C 279.844 111.921,281.600 115.343,281.600 115.850 C 281.600 116.153,281.780 116.400,282.000 116.400 C 282.220 116.400,282.400 116.929,282.400 117.576 C 282.400 118.223,282.580 118.864,282.800 119.000 C 283.020 119.136,283.200 120.047,283.200 121.024 C 283.200 122.001,283.380 122.800,283.600 122.800 C 283.840 122.800,284.000 124.392,284.000 126.776 C 284.000 128.996,283.823 130.862,283.600 131.000 C 283.380 131.136,283.200 131.888,283.200 132.671 C 283.200 134.154,281.625 139.301,281.101 139.533 C 280.935 139.607,280.800 140.012,280.800 140.433 C 280.800 140.855,280.642 141.200,280.449 141.200 C 280.255 141.200,279.880 141.725,279.614 142.367 C 278.706 144.558,273.320 148.800,271.446 148.800 C 271.090 148.800,270.800 148.980,270.800 149.200 C 270.800 149.420,269.900 149.600,268.800 149.600 C 267.700 149.600,266.800 149.780,266.800 150.000 C 266.800 150.220,266.451 150.400,266.024 150.400 C 265.597 150.400,265.136 150.220,265.000 150.000 C 264.864 149.780,264.131 149.600,263.370 149.600 C 261.784 149.600,258.800 148.753,258.800 148.303 C 258.800 148.136,258.440 148.000,258.000 148.000 C 257.560 148.000,257.200 147.820,257.200 147.600 C 257.200 147.380,256.975 147.196,256.700 147.191 C 256.074 147.179,252.000 143.074,252.000 142.455 C 252.000 142.205,251.865 141.999,251.700 141.997 C 251.341 141.993,250.400 140.056,250.400 139.320 C 250.400 139.034,250.220 138.800,250.000 138.800 C 249.780 138.800,249.600 138.386,249.600 137.880 C 249.600 137.374,249.426 136.786,249.213 136.573 C 249.001 136.361,248.783 135.605,248.728 134.893 C 248.674 134.182,248.488 133.600,248.315 133.600 C 248.142 133.600,248.000 130.630,248.000 127.000 C 248.000 122.867,248.149 120.400,248.400 120.400 C 248.620 120.400,248.800 119.858,248.800 119.195 C 248.800 118.532,249.008 117.587,249.262 117.095 C 250.233 115.218,250.400 114.793,250.400 114.205 C 250.400 113.872,250.558 113.600,250.751 113.600 C 250.945 113.600,251.317 113.083,251.579 112.451 C 253.920 106.799,264.777 102.478,270.681 104.849 M222.900 387.876 C 223.285 387.976,223.915 387.976,224.300 387.876 C 224.685 387.775,224.370 387.693,223.600 387.693 C 222.830 387.693,222.515 387.775,222.900 387.876 " stroke="none" fill="#32c1d6" fill-rule="evenodd"></path><path id="path22" d="" stroke="none" fill="#ff8000" fill-rule="evenodd"></path><path id="path23" d="" stroke="none" fill="#80bfbf" fill-rule="evenodd"></path><path id="path24" d="M342.881 278.834 C 342.507 279.512,341.615 280.717,340.900 281.512 C 340.185 282.306,339.600 283.111,339.600 283.300 C 339.600 283.489,339.061 284.219,338.402 284.922 C 337.743 285.625,337.203 286.341,337.202 286.513 C 337.201 286.686,336.570 287.457,335.800 288.227 C 335.030 288.997,334.400 289.789,334.400 289.987 C 334.400 290.185,333.545 291.233,332.500 292.316 C 331.455 293.400,329.970 295.064,329.200 296.015 C 327.223 298.455,316.947 308.722,314.801 310.400 C 313.817 311.170,312.312 312.475,311.457 313.300 C 310.603 314.125,309.751 314.800,309.565 314.800 C 309.379 314.800,308.634 315.385,307.910 316.100 C 307.186 316.815,305.921 317.850,305.099 318.400 C 304.278 318.950,303.604 319.535,303.603 319.700 C 303.601 319.865,303.330 320.000,303.000 320.000 C 302.670 320.000,302.400 320.180,302.400 320.400 C 302.400 320.620,302.170 320.800,301.888 320.800 C 301.607 320.800,301.117 321.160,300.800 321.600 C 300.483 322.040,299.893 322.400,299.488 322.400 C 299.084 322.400,298.864 322.580,299.000 322.800 C 299.136 323.020,298.967 323.200,298.624 323.200 C 298.281 323.200,298.000 323.380,298.000 323.600 C 298.000 323.820,297.730 324.000,297.400 324.000 C 297.070 324.000,296.800 324.180,296.800 324.400 C 296.800 324.620,296.530 324.800,296.200 324.800 C 295.870 324.800,295.600 324.980,295.600 325.200 C 295.600 325.420,295.345 325.600,295.033 325.600 C 294.722 325.600,294.407 325.735,294.333 325.900 C 294.260 326.065,293.660 326.490,293.000 326.844 C 292.340 327.198,290.553 328.254,289.028 329.192 C 284.805 331.788,282.927 332.787,282.651 332.584 C 282.513 332.483,282.481 332.511,282.580 332.647 C 282.789 332.933,272.878 338.000,272.111 338.000 C 271.830 338.000,271.600 338.180,271.600 338.400 C 271.600 338.620,271.258 338.800,270.841 338.800 C 270.423 338.800,269.047 339.344,267.782 340.009 C 266.518 340.674,265.060 341.254,264.542 341.297 C 264.024 341.339,263.600 341.495,263.600 341.642 C 263.600 341.789,263.105 342.000,262.500 342.110 C 261.895 342.221,260.185 342.772,258.700 343.334 C 257.215 343.897,256.000 344.241,256.000 344.099 C 256.000 343.956,255.784 344.056,255.520 344.320 C 255.256 344.584,254.536 344.800,253.920 344.800 C 253.304 344.800,252.800 344.980,252.800 345.200 C 252.800 345.420,252.271 345.600,251.624 345.600 C 250.977 345.600,250.336 345.780,250.200 346.000 C 250.064 346.220,249.434 346.400,248.800 346.400 C 248.166 346.400,247.536 346.580,247.400 346.800 C 247.264 347.020,246.533 347.200,245.776 347.200 C 245.019 347.200,244.400 347.380,244.400 347.600 C 244.400 347.820,243.680 348.000,242.800 348.000 C 241.920 348.000,241.200 348.180,241.200 348.400 C 241.200 348.620,240.300 348.800,239.200 348.800 C 238.100 348.800,237.200 348.980,237.200 349.200 C 237.200 349.420,236.300 349.600,235.200 349.600 C 234.100 349.600,233.200 349.780,233.200 350.000 C 233.200 350.220,232.221 350.400,231.024 350.400 C 229.827 350.400,228.736 350.580,228.600 350.800 C 228.464 351.020,227.193 351.200,225.776 351.200 C 224.325 351.200,223.200 351.375,223.200 351.600 C 223.200 351.841,221.541 352.000,219.024 352.000 C 216.671 352.000,214.739 352.175,214.600 352.400 C 214.446 352.649,210.670 352.800,204.600 352.800 C 198.530 352.800,194.754 352.649,194.600 352.400 C 194.461 352.175,192.529 352.000,190.176 352.000 C 187.659 352.000,186.000 351.841,186.000 351.600 C 186.000 351.369,184.733 351.200,183.000 351.200 C 181.267 351.200,180.000 351.031,180.000 350.800 C 180.000 350.578,178.933 350.400,177.600 350.400 C 176.267 350.400,175.200 350.222,175.200 350.000 C 175.200 349.780,174.401 349.600,173.424 349.600 C 172.447 349.600,171.548 349.439,171.426 349.242 C 171.305 349.045,170.529 348.790,169.703 348.675 C 168.876 348.560,167.390 348.257,166.400 348.004 C 165.410 347.750,164.015 347.446,163.300 347.327 C 162.585 347.209,162.000 346.972,162.000 346.800 C 162.000 346.628,161.370 346.378,160.600 346.244 C 159.830 346.110,158.568 345.890,157.796 345.756 C 157.024 345.621,156.294 345.351,156.173 345.156 C 156.052 344.960,155.601 344.800,155.171 344.800 C 154.741 344.800,154.077 344.641,153.695 344.447 C 151.584 343.373,147.539 342.000,146.487 342.000 C 145.999 342.000,145.600 341.820,145.600 341.600 C 145.600 341.380,145.366 341.200,145.080 341.200 C 144.344 341.200,142.407 340.259,142.403 339.900 C 142.401 339.735,141.860 339.600,141.200 339.600 C 140.540 339.600,139.999 339.465,139.997 339.300 C 139.993 338.941,138.056 338.000,137.320 338.000 C 137.034 338.000,136.799 337.865,136.799 337.700 C 136.798 337.535,135.808 336.950,134.600 336.400 C 133.392 335.850,132.402 335.265,132.401 335.100 C 132.401 334.935,132.166 334.800,131.880 334.800 C 131.144 334.800,129.207 333.859,129.203 333.500 C 129.201 333.335,128.840 333.200,128.400 333.200 C 127.960 333.200,127.600 333.048,127.600 332.863 C 127.600 332.677,126.745 332.093,125.700 331.563 C 124.655 331.034,123.620 330.463,123.400 330.294 C 121.944 329.175,119.959 327.893,118.500 327.130 C 117.565 326.641,116.800 326.096,116.800 325.920 C 116.800 325.744,116.530 325.600,116.200 325.600 C 115.870 325.600,115.600 325.420,115.600 325.200 C 115.600 324.980,115.330 324.800,115.000 324.800 C 114.670 324.800,114.400 324.620,114.400 324.400 C 114.400 324.180,114.119 324.000,113.776 324.000 C 113.433 324.000,113.264 323.820,113.400 323.600 C 113.536 323.380,113.352 323.200,112.992 323.200 C 112.632 323.200,111.672 322.525,110.859 321.700 C 110.047 320.875,109.152 320.152,108.871 320.093 C 108.590 320.035,107.763 319.405,107.034 318.693 C 106.304 317.982,104.684 316.500,103.432 315.400 C 102.181 314.300,99.643 311.915,97.792 310.100 C 93.883 306.267,93.121 306.052,90.987 308.187 C 90.224 308.949,89.600 309.853,89.600 310.195 C 89.600 311.056,97.061 318.874,99.800 320.884 C 100.680 321.529,102.154 322.765,103.077 323.629 C 103.999 324.493,104.945 325.200,105.180 325.200 C 105.415 325.200,106.172 325.740,106.863 326.400 C 107.554 327.060,108.290 327.600,108.499 327.600 C 108.708 327.600,109.356 328.095,109.940 328.700 C 110.523 329.305,111.495 330.055,112.100 330.368 C 112.705 330.680,113.200 331.085,113.200 331.268 C 113.200 331.450,113.388 331.600,113.617 331.600 C 113.846 331.600,114.420 331.960,114.892 332.400 C 115.364 332.840,115.987 333.200,116.275 333.200 C 116.564 333.200,116.800 333.380,116.800 333.600 C 116.800 333.820,117.070 334.000,117.400 334.000 C 117.730 334.000,118.000 334.180,118.000 334.400 C 118.000 334.620,118.270 334.800,118.600 334.800 C 118.930 334.800,119.201 334.935,119.203 335.100 C 119.205 335.265,119.610 335.587,120.103 335.817 C 121.871 336.638,124.610 338.209,125.129 338.700 C 125.612 339.157,125.950 339.260,126.655 339.166 C 126.796 339.147,127.039 339.339,127.195 339.592 C 127.352 339.846,127.750 340.093,128.080 340.141 C 128.410 340.190,129.151 340.538,129.726 340.915 C 130.301 341.292,130.958 341.600,131.186 341.600 C 131.414 341.600,131.600 341.780,131.600 342.000 C 131.600 342.220,131.852 342.400,132.159 342.400 C 132.467 342.400,133.745 342.940,135.000 343.600 C 136.255 344.260,137.623 344.800,138.041 344.800 C 138.458 344.800,138.800 344.980,138.800 345.200 C 138.800 345.420,139.160 345.600,139.600 345.600 C 140.040 345.600,140.400 345.780,140.400 346.000 C 140.400 346.220,140.760 346.400,141.200 346.400 C 141.640 346.400,142.000 346.580,142.000 346.800 C 142.000 347.020,142.540 347.200,143.200 347.200 C 143.860 347.200,144.400 347.380,144.400 347.600 C 144.400 347.820,144.760 348.000,145.200 348.000 C 145.640 348.000,146.000 348.180,146.000 348.400 C 146.000 348.620,146.439 348.800,146.976 348.800 C 147.513 348.800,148.064 348.980,148.200 349.200 C 148.336 349.420,148.977 349.600,149.624 349.600 C 150.271 349.600,150.800 349.780,150.800 350.000 C 150.800 350.220,151.162 350.400,151.605 350.400 C 152.048 350.400,152.723 350.558,153.105 350.751 C 154.272 351.340,156.608 352.000,157.528 352.000 C 158.008 352.000,158.400 352.180,158.400 352.400 C 158.400 352.620,158.940 352.800,159.600 352.800 C 160.260 352.800,160.800 352.935,160.801 353.100 C 160.801 353.265,161.361 353.439,162.045 353.487 C 162.728 353.535,163.493 353.739,163.744 353.940 C 164.173 354.283,165.085 354.483,168.700 355.025 C 169.525 355.148,170.560 355.405,171.000 355.596 C 171.440 355.786,172.610 356.040,173.600 356.161 C 175.520 356.395,177.110 356.613,180.000 357.039 C 183.259 357.518,185.331 357.675,191.100 357.876 C 194.235 357.986,196.800 358.238,196.800 358.438 C 196.800 358.641,200.124 358.800,204.400 358.800 C 209.200 358.800,212.000 358.653,212.000 358.400 C 212.000 358.153,214.059 358.000,217.376 358.000 C 220.333 358.000,222.844 357.852,222.957 357.670 C 223.069 357.489,223.887 357.380,224.776 357.429 C 225.664 357.477,227.068 357.369,227.896 357.188 C 228.723 357.007,230.210 356.814,231.200 356.760 C 232.190 356.706,233.337 356.495,233.748 356.291 C 234.160 356.087,235.150 355.920,235.948 355.920 C 236.747 355.920,237.689 355.766,238.043 355.577 C 238.397 355.387,239.342 355.189,240.143 355.135 C 240.944 355.081,241.600 354.893,241.600 354.718 C 241.600 354.543,242.309 354.400,243.176 354.400 C 244.043 354.400,244.864 354.220,245.000 354.000 C 245.136 353.780,245.719 353.600,246.295 353.600 C 247.366 353.600,249.649 352.980,250.895 352.351 C 251.277 352.158,252.031 352.000,252.571 352.000 C 253.111 352.000,253.664 351.820,253.800 351.600 C 253.936 351.380,254.476 351.200,255.000 351.200 C 255.524 351.200,256.064 351.020,256.200 350.800 C 256.336 350.580,256.876 350.400,257.400 350.400 C 257.924 350.400,258.464 350.220,258.600 350.000 C 258.736 349.780,259.287 349.600,259.824 349.600 C 260.361 349.600,260.800 349.420,260.800 349.200 C 260.800 348.980,261.239 348.800,261.776 348.800 C 262.313 348.800,262.864 348.620,263.000 348.400 C 263.136 348.180,263.687 348.000,264.224 348.000 C 264.761 348.000,265.200 347.820,265.200 347.600 C 265.200 347.380,265.562 347.200,266.005 347.200 C 266.448 347.200,267.123 347.041,267.505 346.847 C 268.178 346.504,268.750 346.259,271.500 345.136 C 272.215 344.844,272.800 344.469,272.800 344.302 C 272.800 344.136,273.340 344.000,274.000 344.000 C 274.660 344.000,275.201 343.865,275.203 343.700 C 275.207 343.341,277.144 342.400,277.880 342.400 C 278.166 342.400,278.400 342.220,278.400 342.000 C 278.400 341.780,278.625 341.597,278.900 341.593 C 279.175 341.589,281.380 340.577,283.800 339.344 C 286.220 338.112,288.604 336.900,289.097 336.651 C 289.590 336.403,289.995 336.065,289.997 335.900 C 289.999 335.735,290.360 335.600,290.800 335.600 C 291.240 335.600,291.600 335.420,291.600 335.200 C 291.600 334.980,291.836 334.800,292.125 334.800 C 292.413 334.800,293.036 334.440,293.508 334.000 C 293.980 333.560,294.644 333.200,294.983 333.200 C 295.322 333.200,295.600 333.050,295.600 332.868 C 295.600 332.685,296.095 332.280,296.700 331.968 C 297.305 331.655,298.001 331.212,298.246 330.982 C 298.492 330.753,299.797 329.861,301.146 329.002 C 302.496 328.142,303.600 327.295,303.600 327.119 C 303.600 326.944,303.791 326.800,304.023 326.800 C 304.367 326.800,307.198 324.806,308.000 323.999 C 308.110 323.888,308.920 323.307,309.800 322.706 C 310.680 322.106,311.923 321.162,312.562 320.607 C 313.201 320.053,313.868 319.600,314.044 319.600 C 314.219 319.600,315.161 318.790,316.137 317.800 C 317.113 316.810,318.042 316.000,318.201 316.000 C 318.462 316.000,321.937 312.621,331.893 302.686 C 333.705 300.879,335.190 299.271,335.193 299.113 C 335.197 298.956,335.836 298.191,336.613 297.413 C 337.391 296.636,337.932 296.000,337.816 296.000 C 337.700 296.000,337.953 295.595,338.378 295.100 C 339.896 293.334,340.611 292.450,341.400 291.366 C 341.840 290.762,342.425 290.041,342.700 289.763 C 342.975 289.485,343.200 289.156,343.200 289.033 C 343.200 288.780,344.203 287.516,345.409 286.250 C 347.916 283.618,349.316 279.818,347.940 279.381 C 347.533 279.252,347.200 278.996,347.200 278.812 C 347.200 278.452,345.037 277.600,344.122 277.600 C 343.814 277.600,343.256 278.155,342.881 278.834 " stroke="none" fill="#f89938" fill-rule="evenodd"></path><path id="path25" d="" stroke="none" fill="#bfbf00" fill-rule="evenodd"></path><path id="path26" d="" stroke="none" fill="#ff80ff" fill-rule="evenodd"></path><path id="path27" d="" stroke="none" fill="#00ff00" fill-rule="evenodd"></path><path id="path28" d="" stroke="none" fill="#00ffff" fill-rule="evenodd"></path><path id="path29" d="" stroke="none" fill="#ffd42a" fill-rule="evenodd"></path><path id="path30" d="" stroke="none" fill="#55ffff" fill-rule="evenodd"></path><path id="path31" d="M12.000 230.400 C 12.000 230.620,11.491 230.800,10.869 230.800 C 9.741 230.800,9.009 234.174,10.001 234.800 C 10.176 234.910,10.375 235.540,10.444 236.200 C 10.513 236.860,10.711 237.598,10.884 237.840 C 11.058 238.083,11.237 238.803,11.283 239.440 C 11.329 240.078,11.508 240.700,11.681 240.822 C 11.854 240.945,12.036 241.530,12.085 242.122 C 12.134 242.715,12.315 243.200,12.487 243.200 C 12.659 243.200,12.800 243.614,12.800 244.120 C 12.800 244.626,12.964 245.211,13.165 245.420 C 13.366 245.629,13.591 246.250,13.665 246.800 C 13.739 247.350,13.916 247.890,14.059 248.000 C 14.201 248.110,14.381 248.650,14.459 249.200 C 14.536 249.750,14.734 250.300,14.898 250.422 C 15.062 250.545,15.236 251.130,15.285 251.722 C 15.334 252.315,15.515 252.800,15.687 252.800 C 15.859 252.800,16.000 253.145,16.000 253.567 C 16.000 253.988,16.163 254.393,16.362 254.467 C 16.561 254.540,16.786 255.050,16.862 255.600 C 16.938 256.150,17.144 256.706,17.320 256.836 C 17.496 256.966,17.669 257.461,17.705 257.936 C 17.741 258.411,17.912 258.800,18.085 258.800 C 18.258 258.800,18.400 259.145,18.400 259.567 C 18.400 259.988,18.563 260.393,18.762 260.467 C 18.961 260.540,19.186 261.050,19.262 261.600 C 19.338 262.150,19.490 262.690,19.600 262.800 C 20.066 263.266,20.800 264.833,20.800 265.361 C 20.800 265.676,20.978 265.993,21.197 266.067 C 21.415 266.140,21.634 266.695,21.684 267.300 C 21.734 267.905,21.915 268.400,22.087 268.400 C 22.259 268.400,22.400 268.771,22.400 269.224 C 22.400 269.677,22.580 269.936,22.800 269.800 C 23.020 269.664,23.200 269.913,23.200 270.353 C 23.200 270.793,23.380 271.264,23.600 271.400 C 23.820 271.536,24.000 272.007,24.000 272.447 C 24.000 272.887,24.160 273.148,24.356 273.027 C 24.552 272.906,24.832 273.445,24.978 274.225 C 25.124 275.004,25.484 275.734,25.778 275.847 C 26.071 275.960,26.227 276.375,26.124 276.771 C 26.012 277.198,26.202 277.592,26.593 277.742 C 26.955 277.881,27.126 278.196,26.974 278.442 C 26.822 278.688,26.886 279.006,27.117 279.149 C 27.347 279.291,27.595 279.672,27.668 279.994 C 27.741 280.317,28.027 280.825,28.304 281.123 C 28.581 281.421,28.705 281.830,28.580 282.032 C 28.455 282.235,28.543 282.400,28.776 282.400 C 29.009 282.400,29.200 282.760,29.200 283.200 C 29.200 283.640,29.380 284.000,29.600 284.000 C 29.820 284.000,30.000 284.360,30.000 284.800 C 30.000 285.240,30.180 285.600,30.400 285.600 C 30.620 285.600,30.800 285.870,30.800 286.200 C 30.800 286.530,30.980 286.800,31.200 286.800 C 31.420 286.800,31.600 287.081,31.600 287.424 C 31.600 287.767,31.780 287.936,32.000 287.800 C 32.227 287.660,32.400 287.996,32.400 288.576 C 32.400 289.139,32.580 289.600,32.800 289.600 C 33.020 289.600,33.200 289.870,33.200 290.200 C 33.200 290.530,33.380 290.800,33.600 290.800 C 33.820 290.800,34.000 291.120,34.000 291.512 C 34.000 291.903,34.360 292.483,34.800 292.800 C 35.240 293.117,35.600 293.697,35.600 294.088 C 35.600 294.480,35.780 294.800,36.000 294.800 C 36.220 294.800,36.400 295.117,36.400 295.504 C 36.400 295.891,36.760 296.432,37.200 296.707 C 37.640 296.982,38.000 297.526,38.000 297.915 C 38.000 298.305,38.360 298.883,38.800 299.200 C 39.240 299.517,39.600 300.107,39.600 300.512 C 39.600 300.916,39.780 301.136,40.000 301.000 C 40.220 300.864,40.400 301.033,40.400 301.376 C 40.400 301.719,40.580 302.000,40.800 302.000 C 41.020 302.000,41.200 302.360,41.200 302.800 C 41.200 303.240,41.347 303.600,41.526 303.600 C 41.705 303.600,42.155 304.236,42.525 305.012 C 42.896 305.789,43.468 306.528,43.797 306.654 C 44.126 306.781,44.293 307.050,44.167 307.253 C 44.042 307.456,44.493 308.139,45.170 308.772 C 45.846 309.404,46.400 310.137,46.400 310.400 C 46.400 310.663,46.940 311.383,47.600 312.000 C 48.260 312.617,48.800 313.317,48.800 313.557 C 48.800 313.797,49.340 314.509,50.000 315.140 C 50.660 315.771,51.200 316.505,51.200 316.772 C 51.200 317.407,52.234 318.433,52.552 318.114 C 52.689 317.978,52.800 318.094,52.800 318.373 C 52.800 318.651,53.340 319.383,54.000 320.000 C 54.660 320.617,55.200 321.332,55.200 321.589 C 55.200 322.211,56.238 323.228,56.552 322.914 C 56.689 322.778,56.800 322.889,56.800 323.160 C 56.800 323.432,57.430 324.248,58.200 324.974 C 58.970 325.700,59.600 326.497,59.600 326.744 C 59.600 326.991,59.960 327.418,60.400 327.693 C 60.840 327.968,61.200 328.419,61.200 328.696 C 61.200 328.973,61.425 329.155,61.700 329.100 C 61.975 329.045,62.155 329.225,62.100 329.500 C 62.045 329.775,62.281 330.000,62.624 330.000 C 62.967 330.000,63.157 330.145,63.048 330.323 C 62.938 330.501,63.322 330.996,63.902 331.423 C 64.481 331.850,65.325 332.629,65.778 333.153 C 67.866 335.572,69.524 337.142,69.751 336.915 C 69.888 336.779,70.000 336.977,70.000 337.357 C 70.000 337.737,70.180 337.936,70.400 337.800 C 70.620 337.664,70.802 337.788,70.804 338.076 C 70.806 338.364,71.377 339.050,72.074 339.600 C 72.771 340.150,73.566 340.825,73.842 341.100 C 74.117 341.375,74.460 341.600,74.603 341.600 C 74.746 341.600,75.554 342.320,76.400 343.200 C 77.246 344.080,78.161 344.800,78.435 344.800 C 78.709 344.800,78.822 344.911,78.686 345.048 C 78.374 345.360,79.387 346.400,80.003 346.400 C 80.256 346.400,81.147 347.112,81.983 347.982 C 82.819 348.852,83.615 349.452,83.751 349.315 C 83.888 349.179,84.000 349.367,84.000 349.733 C 84.000 350.127,84.318 350.400,84.777 350.400 C 85.205 350.400,85.806 350.759,86.113 351.197 C 86.420 351.636,86.791 351.876,86.936 351.731 C 87.081 351.586,87.200 351.767,87.200 352.133 C 87.200 352.533,87.520 352.800,88.000 352.800 C 88.440 352.800,88.800 352.937,88.800 353.105 C 88.800 353.273,89.205 353.595,89.700 353.820 C 90.195 354.045,90.551 354.461,90.490 354.744 C 90.425 355.049,90.572 355.141,90.851 354.969 C 91.116 354.805,91.557 355.000,91.861 355.415 C 92.157 355.821,92.400 356.039,92.400 355.899 C 92.400 355.759,92.980 356.175,93.689 356.823 C 94.398 357.470,95.216 358.000,95.506 358.000 C 95.796 358.000,96.420 358.360,96.892 358.800 C 97.364 359.240,97.987 359.600,98.275 359.600 C 98.564 359.600,98.800 359.780,98.800 360.000 C 98.800 360.220,99.081 360.400,99.424 360.400 C 99.767 360.400,99.936 360.580,99.800 360.800 C 99.664 361.020,99.923 361.200,100.376 361.200 C 100.829 361.200,101.200 361.380,101.200 361.600 C 101.200 361.820,101.520 362.000,101.912 362.000 C 102.303 362.000,102.883 362.360,103.200 362.800 C 103.517 363.240,104.097 363.600,104.488 363.600 C 104.880 363.600,105.200 363.780,105.200 364.000 C 105.200 364.220,105.520 364.400,105.912 364.400 C 106.303 364.400,106.883 364.760,107.200 365.200 C 107.517 365.640,108.097 366.000,108.488 366.000 C 108.880 366.000,109.200 366.180,109.200 366.400 C 109.200 366.620,109.470 366.800,109.800 366.800 C 110.130 366.800,110.400 366.980,110.400 367.200 C 110.400 367.420,110.634 367.600,110.920 367.600 C 111.656 367.600,113.593 368.541,113.597 368.900 C 113.599 369.065,113.960 369.200,114.400 369.200 C 114.840 369.200,115.200 369.380,115.200 369.600 C 115.200 369.820,115.560 370.000,116.000 370.000 C 116.440 370.000,116.800 370.180,116.800 370.400 C 116.800 370.620,117.160 370.800,117.600 370.800 C 118.040 370.800,118.400 370.980,118.400 371.200 C 118.400 371.420,118.760 371.600,119.200 371.600 C 119.640 371.600,120.000 371.780,120.000 372.000 C 120.000 372.220,120.324 372.400,120.720 372.400 C 121.116 372.400,121.656 372.616,121.920 372.880 C 122.184 373.144,122.400 373.206,122.400 373.018 C 122.400 372.830,122.761 373.003,123.202 373.402 C 123.644 373.802,124.115 374.018,124.250 373.883 C 124.385 373.748,124.758 373.901,125.080 374.223 C 125.401 374.544,125.818 374.713,126.005 374.597 C 126.192 374.482,126.458 374.570,126.596 374.793 C 126.734 375.017,127.197 375.200,127.624 375.200 C 128.051 375.200,128.400 375.380,128.400 375.600 C 128.400 375.820,128.760 376.000,129.200 376.000 C 129.640 376.000,130.000 376.180,130.000 376.400 C 130.000 376.620,130.529 376.800,131.176 376.800 C 131.823 376.800,132.464 376.980,132.600 377.200 C 132.736 377.420,133.287 377.600,133.824 377.600 C 134.361 377.600,134.800 377.780,134.800 378.000 C 134.800 378.220,135.160 378.400,135.600 378.400 C 136.040 378.400,136.400 378.580,136.400 378.800 C 136.400 379.020,136.929 379.200,137.576 379.200 C 138.223 379.200,138.864 379.380,139.000 379.600 C 139.136 379.820,139.687 380.000,140.224 380.000 C 140.761 380.000,141.200 380.160,141.200 380.355 C 141.200 380.690,141.574 380.805,144.696 381.430 C 145.409 381.573,145.893 381.849,145.772 382.045 C 145.652 382.240,146.273 382.400,147.153 382.400 C 148.033 382.400,148.864 382.580,149.000 382.800 C 149.136 383.020,149.687 383.200,150.224 383.200 C 150.761 383.200,151.200 383.380,151.200 383.600 C 151.200 383.820,151.920 384.000,152.800 384.000 C 153.680 384.000,154.400 384.180,154.400 384.400 C 154.400 384.620,155.120 384.800,156.000 384.800 C 156.880 384.800,157.600 384.980,157.600 385.200 C 157.600 385.420,158.219 385.600,158.976 385.600 C 159.733 385.600,160.464 385.780,160.600 386.000 C 160.736 386.220,161.647 386.400,162.624 386.400 C 163.601 386.400,164.400 386.580,164.400 386.800 C 164.400 387.020,165.300 387.200,166.400 387.200 C 167.500 387.200,168.400 387.384,168.400 387.610 C 168.400 387.840,169.109 387.971,170.016 387.910 L 171.633 387.800 171.516 385.600 C 171.407 383.531,171.335 383.392,170.300 383.273 C 169.695 383.204,169.200 382.999,169.200 382.818 C 169.200 382.637,168.975 382.497,168.700 382.507 C 166.576 382.586,164.789 382.341,165.000 382.000 C 165.152 381.754,164.479 381.600,163.247 381.600 C 162.147 381.600,161.136 381.420,161.000 381.200 C 160.864 380.980,160.133 380.800,159.376 380.800 C 158.619 380.800,158.000 380.620,158.000 380.400 C 158.000 380.180,157.370 380.000,156.600 380.000 C 155.830 380.000,155.200 379.820,155.200 379.600 C 155.200 379.380,154.660 379.200,154.000 379.200 C 153.340 379.200,152.800 379.020,152.800 378.800 C 152.800 378.580,152.080 378.400,151.200 378.400 C 150.320 378.400,149.600 378.220,149.600 378.000 C 149.600 377.780,149.060 377.600,148.400 377.600 C 147.740 377.600,147.200 377.420,147.200 377.200 C 147.200 376.980,146.748 376.800,146.195 376.800 C 145.642 376.800,144.877 376.642,144.495 376.448 C 143.215 375.801,139.810 374.796,138.900 374.798 C 138.405 374.799,138.000 374.620,138.000 374.400 C 138.000 374.180,137.539 374.000,136.976 374.000 C 136.396 374.000,136.060 373.827,136.200 373.600 C 136.338 373.376,136.031 373.200,135.503 373.200 C 134.431 373.200,132.408 372.352,132.403 371.900 C 132.401 371.735,131.860 371.600,131.200 371.600 C 130.540 371.600,130.000 371.420,130.000 371.200 C 130.000 370.980,129.651 370.800,129.224 370.800 C 128.797 370.800,128.336 370.620,128.200 370.400 C 128.064 370.180,127.513 370.000,126.976 370.000 C 126.439 370.000,126.000 369.854,126.000 369.675 C 126.000 369.496,125.370 369.102,124.600 368.800 C 123.830 368.498,123.200 368.104,123.200 367.925 C 123.200 367.746,122.840 367.600,122.400 367.600 C 121.960 367.600,121.600 367.420,121.600 367.200 C 121.600 366.980,121.139 366.800,120.576 366.800 C 119.996 366.800,119.660 366.627,119.800 366.400 C 119.941 366.172,119.596 366.000,119.000 366.000 C 118.404 366.000,118.059 365.828,118.200 365.600 C 118.336 365.380,118.077 365.200,117.624 365.200 C 117.171 365.200,116.800 365.020,116.800 364.800 C 116.800 364.580,116.440 364.400,116.000 364.400 C 115.560 364.400,115.200 364.220,115.200 364.000 C 115.200 363.780,114.840 363.600,114.400 363.600 C 113.960 363.600,113.600 363.420,113.600 363.200 C 113.600 362.980,113.280 362.800,112.888 362.800 C 112.497 362.800,111.917 362.440,111.600 362.000 C 111.283 361.560,110.703 361.200,110.312 361.200 C 109.920 361.200,109.600 361.001,109.600 360.757 C 109.600 360.514,109.323 360.421,108.985 360.550 C 108.635 360.685,108.272 360.531,108.142 360.193 C 108.017 359.867,107.686 359.600,107.406 359.600 C 107.127 359.600,106.674 359.330,106.400 359.000 C 106.126 358.670,105.444 358.400,104.884 358.400 C 104.325 358.400,103.978 358.289,104.114 358.152 C 104.469 357.797,103.374 356.800,102.629 356.800 C 102.283 356.800,102.000 356.620,102.000 356.400 C 102.000 356.180,101.680 356.000,101.288 356.000 C 100.897 356.000,100.324 355.650,100.015 355.221 C 99.707 354.793,99.316 354.528,99.146 354.633 C 98.977 354.738,98.184 354.188,97.385 353.412 C 96.585 352.635,95.717 352.000,95.454 352.000 C 95.191 352.000,94.717 351.640,94.400 351.200 C 94.083 350.760,93.575 350.400,93.272 350.400 C 92.969 350.400,92.217 349.860,91.600 349.200 C 90.983 348.540,90.321 348.000,90.128 348.000 C 89.935 348.000,89.524 347.650,89.215 347.221 C 88.907 346.793,88.507 346.534,88.327 346.645 C 88.147 346.756,88.000 346.652,88.000 346.414 C 88.000 346.175,87.545 345.807,86.990 345.596 C 86.434 345.385,85.875 344.939,85.747 344.606 C 85.619 344.273,85.335 344.000,85.115 344.000 C 84.895 344.000,84.361 343.550,83.929 343.000 C 83.496 342.450,82.909 342.000,82.625 342.000 C 82.340 342.000,81.077 341.010,79.818 339.800 C 78.558 338.590,77.395 337.600,77.232 337.600 C 77.069 337.600,76.694 337.150,76.400 336.600 C 76.103 336.046,75.509 335.600,75.066 335.600 C 74.626 335.600,74.366 335.501,74.487 335.380 C 74.608 335.259,72.748 333.201,70.353 330.807 C 67.959 328.412,66.000 326.261,66.000 326.027 C 66.000 325.792,65.865 325.645,65.700 325.700 C 65.535 325.755,65.359 325.661,65.310 325.490 C 65.260 325.320,63.955 323.934,62.410 322.410 C 60.864 320.886,59.600 319.442,59.600 319.201 C 59.600 318.961,59.150 318.314,58.600 317.764 C 58.050 317.214,57.600 316.592,57.600 316.382 C 57.600 316.172,57.319 316.000,56.976 316.000 C 56.633 316.000,56.452 315.839,56.574 315.642 C 56.696 315.445,56.515 315.176,56.172 315.045 C 55.830 314.913,55.661 314.624,55.798 314.403 C 55.935 314.181,55.857 314.000,55.624 314.000 C 55.391 314.000,55.200 313.770,55.200 313.488 C 55.200 313.207,54.840 312.717,54.400 312.400 C 53.960 312.083,53.595 311.638,53.589 311.412 C 53.583 311.185,53.043 310.475,52.389 309.833 C 51.735 309.192,51.200 308.416,51.200 308.110 C 51.200 307.803,51.020 307.664,50.800 307.800 C 50.580 307.936,50.400 307.806,50.400 307.512 C 50.400 307.217,50.040 306.717,49.600 306.400 C 49.160 306.083,48.800 305.569,48.800 305.259 C 48.800 304.948,48.451 304.391,48.025 304.022 C 47.599 303.652,47.194 303.092,47.125 302.778 C 47.056 302.465,46.505 301.729,45.900 301.143 C 45.295 300.558,44.800 299.831,44.800 299.528 C 44.800 299.225,44.440 298.717,44.000 298.400 C 43.560 298.083,43.200 297.518,43.200 297.145 C 43.200 296.772,43.034 296.407,42.830 296.333 C 42.627 296.260,42.402 295.937,42.330 295.616 C 42.189 294.983,41.775 294.358,40.733 293.205 C 40.367 292.799,40.172 292.362,40.300 292.233 C 40.428 292.105,40.323 292.000,40.067 292.000 C 39.810 292.000,39.600 291.640,39.600 291.200 C 39.600 290.760,39.420 290.400,39.200 290.400 C 38.980 290.400,38.800 290.083,38.800 289.696 C 38.800 289.309,38.440 288.768,38.000 288.493 C 37.560 288.218,37.200 287.635,37.200 287.197 C 37.200 286.758,37.020 286.400,36.800 286.400 C 36.580 286.400,36.400 286.040,36.400 285.600 C 36.400 285.160,36.220 284.800,36.000 284.800 C 35.780 284.800,35.600 284.440,35.600 284.000 C 35.600 283.560,35.420 283.200,35.200 283.200 C 34.980 283.200,34.800 282.880,34.800 282.488 C 34.800 282.097,34.440 281.517,34.000 281.200 C 33.560 280.883,33.200 280.303,33.200 279.912 C 33.200 279.520,33.065 279.199,32.900 279.197 C 32.541 279.193,31.600 277.256,31.600 276.520 C 31.600 276.234,31.420 276.000,31.200 276.000 C 30.980 276.000,30.800 275.730,30.800 275.400 C 30.800 275.070,30.620 274.800,30.400 274.800 C 30.180 274.800,30.000 274.440,30.000 274.000 C 30.000 273.560,29.820 273.200,29.600 273.200 C 29.380 273.200,29.200 272.840,29.200 272.400 C 29.200 271.960,29.020 271.600,28.800 271.600 C 28.580 271.600,28.400 271.240,28.400 270.800 C 28.400 270.360,28.220 270.000,28.000 270.000 C 27.780 270.000,27.600 269.640,27.600 269.200 C 27.600 268.760,27.420 268.400,27.200 268.400 C 26.980 268.400,26.800 267.849,26.800 267.176 C 26.800 266.463,26.633 266.056,26.400 266.200 C 26.173 266.340,26.000 266.004,26.000 265.424 C 26.000 264.861,25.863 264.400,25.695 264.400 C 25.527 264.400,25.057 263.238,24.651 261.819 C 24.244 260.399,23.765 259.184,23.586 259.119 C 23.407 259.053,23.202 258.730,23.130 258.400 C 23.059 258.070,22.847 257.689,22.661 257.552 C 22.474 257.416,22.294 256.831,22.261 256.253 C 22.227 255.674,22.065 255.200,21.900 255.200 C 21.735 255.200,21.600 254.675,21.600 254.033 C 21.600 253.392,21.434 252.807,21.230 252.733 C 21.027 252.660,20.802 252.330,20.730 252.000 C 20.659 251.670,20.466 251.300,20.302 251.178 C 20.138 251.055,19.965 250.483,19.917 249.906 C 19.869 249.330,19.688 248.945,19.515 249.052 C 19.342 249.160,19.200 248.607,19.200 247.824 C 19.200 247.041,19.020 246.400,18.800 246.400 C 18.580 246.400,18.400 245.961,18.400 245.424 C 18.400 244.887,18.220 244.336,18.000 244.200 C 17.780 244.064,17.600 243.513,17.600 242.976 C 17.600 242.439,17.420 242.000,17.200 242.000 C 16.980 242.000,16.800 241.460,16.800 240.800 C 16.800 240.140,16.620 239.600,16.400 239.600 C 16.180 239.600,16.000 239.060,16.000 238.400 C 16.000 237.740,15.820 237.200,15.600 237.200 C 15.380 237.200,15.200 236.480,15.200 235.600 C 15.200 234.720,15.020 234.000,14.800 234.000 C 14.580 234.000,14.400 233.357,14.400 232.571 C 14.400 231.786,14.143 230.886,13.829 230.571 C 13.173 229.916,12.000 229.806,12.000 230.400 M194.305 358.283 C 194.802 358.379,195.522 358.375,195.905 358.275 C 196.287 358.175,195.880 358.096,195.000 358.101 C 194.120 358.105,193.807 358.187,194.305 358.283 M212.700 358.282 C 213.195 358.378,214.005 358.378,214.500 358.282 C 214.995 358.187,214.590 358.109,213.600 358.109 C 212.610 358.109,212.205 358.187,212.700 358.282 " stroke="none" fill="#f3ec19" fill-rule="evenodd"></path></g></svg>